<svg xmlns="http://www.w3.org/2000/svg" viewBox="0 0 750 500"><g id="freepik--background-complete--inject-2"><path d="M64.07,279.87a3.1,3.1,0,0,1,3.24,0c.27.17.54.33.83.48l.86.43a3.08,3.08,0,0,1,1.8,2.68l.13,4,13-.4-.12-4a3.07,3.07,0,0,1,1.63-2.79,18.63,18.63,0,0,0,1.64-1,3.09,3.09,0,0,1,3.22-.21l3.51,1.88,6.13-11.44-3.5-1.88a3.08,3.08,0,0,1-1.61-2.8c0-.64,0-1.29-.06-1.93A3.07,3.07,0,0,1,96.17,260l3.38-2.1-6.84-11L89.31,249a3.1,3.1,0,0,1-3.23,0c-.27-.17-.55-.33-.83-.48L84.4,248a3.07,3.07,0,0,1-1.81-2.68l-.12-4-13,.4.13,4a3.09,3.09,0,0,1-1.63,2.8q-.84.47-1.65,1a3.09,3.09,0,0,1-3.22.21l-3.5-1.88-6.14,11.44L57,261.2a3.07,3.07,0,0,1,1.61,2.8c0,.65,0,1.3.06,1.94a3.05,3.05,0,0,1-1.43,2.9l-3.38,2.1,6.85,11Zm3.25-20.49a10.63,10.63,0,1,1,4.35,14.4A10.65,10.65,0,0,1,67.32,259.38Z" style="fill:#ebebeb"></path><path d="M558.83,97.86a2.17,2.17,0,0,1,2-1.06l.67,0,.67,0a2.15,2.15,0,0,1,2,1.06l1.4,2.41,7.88-4.54-1.4-2.42a2.16,2.16,0,0,1,.08-2.27,11.17,11.17,0,0,0,.68-1.17,2.17,2.17,0,0,1,1.92-1.19h2.79v-9.1h-2.79a2.17,2.17,0,0,1-1.92-1.19,12.47,12.47,0,0,0-.68-1.18,2.14,2.14,0,0,1-.08-2.26l1.4-2.42L565.58,68l-1.4,2.42a2.17,2.17,0,0,1-2,1.06c-.22,0-.45,0-.67,0s-.45,0-.67,0a2.17,2.17,0,0,1-2-1.06L557.44,68l-7.88,4.54,1.4,2.41a2.16,2.16,0,0,1-.08,2.27,10.62,10.62,0,0,0-.68,1.18,2.17,2.17,0,0,1-1.92,1.19h-2.79v9.1h2.79a2.17,2.17,0,0,1,1.92,1.19,10.62,10.62,0,0,0,.68,1.18,2.16,2.16,0,0,1,.08,2.27l-1.4,2.41,7.88,4.54Zm-4.77-13.73a7.45,7.45,0,1,1,7.45,7.45A7.46,7.46,0,0,1,554.06,84.13Z" style="fill:#ebebeb"></path><path d="M100.57,317.66a2.17,2.17,0,0,1,1.06,2c0,.23,0,.45,0,.67s0,.46,0,.68a2.18,2.18,0,0,1-1,2l-2.42,1.39,4.54,7.88,2.42-1.39a2.16,2.16,0,0,1,2.27.08c.38.24.77.47,1.17.67a2.17,2.17,0,0,1,1.19,1.93v2.78h9.1v-2.78a2.18,2.18,0,0,1,1.2-1.93c.4-.2.79-.43,1.17-.67a2.14,2.14,0,0,1,2.26-.08l2.42,1.39,4.55-7.88L128,323a2.13,2.13,0,0,1-1.05-2c0-.22,0-.44,0-.67s0-.44,0-.67a2.15,2.15,0,0,1,1.06-2l2.42-1.4-4.55-7.87-2.41,1.39a2.16,2.16,0,0,1-2.27-.08c-.37-.24-.77-.47-1.17-.68a2.15,2.15,0,0,1-1.2-1.92v-2.78h-9.1v2.78a2.14,2.14,0,0,1-1.19,1.92c-.41.21-.8.44-1.18.68a2.16,2.16,0,0,1-2.27.08l-2.41-1.39-4.54,7.87Zm13.73-4.78a7.45,7.45,0,1,1-7.45,7.45A7.46,7.46,0,0,1,114.3,312.88Z" style="fill:#ebebeb"></path><circle cx="462.84" cy="402.82" r="24.5" transform="translate(-136.42 271.01) rotate(-28.63)" style="fill:#ebebeb"></circle><circle cx="309.62" cy="102.48" r="24.5" style="fill:#ebebeb"></circle><circle cx="212.84" cy="251.14" r="10.45" transform="translate(-68.35 422.33) rotate(-81.05)" style="fill:#ebebeb"></circle><circle cx="625.02" cy="252.65" r="10.45" style="fill:#ebebeb"></circle><rect x="275.38" y="196.23" width="2" height="115.51" transform="matrix(0.02, -1, 1, 0.02, 16.07, 524.41)" style="fill:#ebebeb"></rect><rect x="417.92" y="243.24" width="2" height="171.67" transform="translate(-109.39 260.71) rotate(-30.78)" style="fill:#ebebeb"></rect><rect x="342.23" y="102.79" width="2" height="130.34" transform="translate(-38.87 163.5) rotate(-25.41)" style="fill:#ebebeb"></rect><rect x="402.47" y="251.65" width="222.54" height="2" style="fill:#ebebeb"></rect><circle cx="230.33" cy="60.49" r="6.97" style="fill:#ebebeb"></circle><path d="M212.13,75.94a7,7,0,1,1-7-7A7,7,0,0,1,212.13,75.94Z" style="fill:#ebebeb"></path><path d="M237.29,91.4a7,7,0,1,1-7-7A7,7,0,0,1,237.29,91.4Z" style="fill:#ebebeb"></path><polygon points="229.78 93.03 203.28 75.92 229.8 59.64 230.85 61.34 207.04 75.97 230.87 91.35 229.78 93.03" style="fill:#ebebeb"></polygon></g><g id="freepik--Connectivity--inject-2"><rect x="257.57" y="141.07" width="4" height="122.01" transform="translate(-22.13 371.95) rotate(-68.99)" style="fill:#633FBD"></rect><rect x="257.06" y="298.85" width="72.25" height="4" transform="translate(-113.09 194.06) rotate(-31.01)" style="fill:#633FBD"></rect><rect x="460.18" y="270.37" width="4" height="77.27" transform="translate(-16 592.62) rotate(-64.44)" style="fill:#633FBD"></rect><rect x="431.82" y="190.75" width="121.52" height="4" transform="translate(-36.3 184.4) rotate(-20.47)" style="fill:#633FBD"></rect><rect x="388.44" y="153.73" width="71.01" height="4" transform="translate(66.54 431.85) rotate(-57.86)" style="fill:#633FBD"></rect><circle cx="375" cy="249.76" r="76.02" style="fill:#633FBD"></circle><circle cx="127.94" cy="149.39" r="70.51" transform="translate(-47.92 237.48) rotate(-76.03)" style="fill:#633FBD"></circle><path d="M127.94,231a81.65,81.65,0,1,1,81.65-81.65A81.74,81.74,0,0,1,127.94,231Zm0-159.3a77.65,77.65,0,1,0,77.65,77.65A77.75,77.75,0,0,0,127.94,71.74Z" style="fill:#633FBD"></path><path d="M622.06,221.44a81.65,81.65,0,1,1,81.65-81.65A81.74,81.74,0,0,1,622.06,221.44Zm0-159.3a77.65,77.65,0,1,0,77.65,77.65A77.73,77.73,0,0,0,622.06,62.14Z" style="fill:#633FBD"></path><path d="M564.7,448.87a81.65,81.65,0,1,1,81.65-81.65A81.74,81.74,0,0,1,564.7,448.87Zm0-159.3a77.65,77.65,0,1,0,77.65,77.65A77.74,77.74,0,0,0,564.7,289.57Z" style="fill:#633FBD"></path><path d="M194,442.15A81.65,81.65,0,1,1,275.6,360.5,81.74,81.74,0,0,1,194,442.15Zm0-159.3A77.65,77.65,0,1,0,271.6,360.5,77.75,77.75,0,0,0,194,282.85Z" style="fill:#633FBD"></path><circle cx="564.7" cy="367.22" r="70.51" transform="matrix(0.22, -0.97, 0.97, 0.22, 80.79, 835.81)" style="fill:#633FBD"></circle><circle cx="622.06" cy="139.79" r="70.51" transform="translate(83.35 480.8) rotate(-45)" style="fill:#633FBD"></circle><circle cx="622.06" cy="139.79" r="70.51" transform="translate(83.35 480.8) rotate(-45)" style="fill:#fff;opacity:0.5"></circle><circle cx="193.95" cy="360.5" r="70.51" transform="translate(-198.11 242.73) rotate(-45)" style="fill:#633FBD"></circle><circle cx="193.95" cy="360.5" r="70.51" transform="translate(-198.11 242.73) rotate(-45)" style="fill:#fff;opacity:0.5"></circle><circle cx="457.29" cy="103.81" r="33.93" transform="translate(252.61 525.71) rotate(-76.91)" style="fill:#633FBD"></circle><circle cx="457.29" cy="103.81" r="33.93" transform="translate(252.61 525.71) rotate(-76.91)" style="opacity:0.1"></circle><rect x="373" y="315.24" width="4" height="80.23" style="fill:#633FBD"></rect><circle cx="375" cy="419.31" r="33.93" style="fill:#633FBD"></circle><circle cx="375" cy="419.31" r="33.93" style="opacity:0.1"></circle><g id="freepik--u5Zjqx--inject-2"><path d="M425.85,236l-4.54,4.51-2.57,2.59C406.54,231.3,392,225,375,225s-31.52,6.3-43.81,18.2c-.8-.84-1.62-1.71-2.45-2.55-1.48-1.51-3-3-4.48-4.51,0,0-.09-.05-.13-.08v-.11l.33-.27c1.91-1.7,3.77-3.46,5.74-5.08a66.58,66.58,0,0,1,13.28-8.46,67.56,67.56,0,0,1,17.59-5.92c2.91-.53,5.86-.8,8.79-1.16,1-.13,7.5-.15,7.7-.14,2,.15,4,.24,6,.46a68.43,68.43,0,0,1,16.14,3.85,71.36,71.36,0,0,1,10.92,5.11,69.11,69.11,0,0,1,10.42,7.3c1.63,1.39,3.2,2.87,4.79,4.31Z" style="fill:#fff"></path><path d="M345.62,257.4l-7.18-7.11a50.54,50.54,0,0,1,29.19-14.66c17-2.29,31.55,2.86,43.9,14.56l-7.2,7.17c-8.12-7.88-17.89-12.14-29.35-12.14S353.79,249.48,345.62,257.4Z" style="fill:#fff"></path><path d="M397.16,264.56c-2.36,2.37-4.73,4.73-7.14,7.13a21.21,21.21,0,0,0-30.07,0l-7.13-7.12A31.15,31.15,0,0,1,397.16,264.56Z" style="fill:#fff"></path><path d="M381.44,278.18a6.45,6.45,0,1,1-6.45-6.45A6.45,6.45,0,0,1,381.44,278.18Z" style="fill:#fff"></path></g><path d="M435.61,108.18a5.58,5.58,0,0,0,5.17,5.56v0H472.4a6.56,6.56,0,0,0,.61-13.1,11.05,11.05,0,0,0-21.42-3.46,6.57,6.57,0,0,0-9.49,5.47,5.4,5.4,0,0,0-.91-.08A5.58,5.58,0,0,0,435.61,108.18Z" style="fill:#fff"></path><path d="M375.38,402.43c-12,0-21.82,7.22-21.82,16.11a12.75,12.75,0,0,0,2.17,7l-2.92,6.55,7.52-1.92a26.19,26.19,0,0,0,15.05,4.46c12.05,0,21.81-7.21,21.81-16.12S387.43,402.43,375.38,402.43ZM365.26,420.8a2.26,2.26,0,1,1,2.27-2.26A2.26,2.26,0,0,1,365.26,420.8Zm10.12,0a2.26,2.26,0,1,1,2.26-2.26A2.26,2.26,0,0,1,375.38,420.8Zm10.11,0a2.26,2.26,0,1,1,2.26-2.26A2.26,2.26,0,0,1,385.49,420.8Z" style="fill:#fff"></path></g><g id="freepik--character-4--inject-2"><path d="M582.8,351.45a.62.62,0,0,1-.5.66l-2.58.17c-2.31-6-4.79-10.78-4.14-8.91a30.82,30.82,0,0,1,1.61,9.06c-1.13.07-3.76.19-5.08.26-2-10.58-4.58-18.42-4.42-16,.65,9.76.08,12.9-.6,16.25-12.27.58-28.36,1.16-40,1.33-1.35-5.84-2.53-12.17-2.73-11.73-1.59,3.31-2,8.1-2.05,11.79-3.71,0-6.67,0-8.48-.14,0,0-.86-4.91-1-6.53a33.73,33.73,0,0,1,1.3-12.31c1.23-4.1,3.36-7.72,5.37-11.43l0-.09,0,0a34.55,34.55,0,0,0,3.09-7.62.14.14,0,0,0,0-.06,33,33,0,0,0,1-5.86c.54-7.22,4.6-13.47,11.39-15.38,12.81-12.08,25.65-7,29.53,2.24.37.9.73,1.93,1.09,3.06v0c1.31,4.17,2.49,9.58,3.58,13.77a0,0,0,0,0,0,0s0,0,0,.05h0a38.84,38.84,0,0,0,1.52,4.83C574,326.43,581.43,330.7,582.8,351.45Z" style="fill:#263238"></path><path d="M532.08,296.87c-4.45,2.33-7.18,5.72-7.87,11-.4,3.07-.6,6.07-1.78,9a31.89,31.89,0,0,1-5.12,7.9c-3.15,3.9-5.34,7.78-5.83,12.95S511.24,349.13,513,354c0,0,.05,0,0,0-1.44-5-1.48-11.85-.6-17,1-5.72,4.21-9.32,7.52-13.67a23.87,23.87,0,0,0,4.86-11.67c.33-2.61.29-5.32,1.34-7.77,1.25-2.93,3.74-4.8,6.22-6.46A.31.31,0,0,0,532.08,296.87Z" style="fill:#263238"></path><path d="M578.26,327c-3.15-4.09-6.42-7.58-8.26-12.65-1.68-4.63-2.64-9.52-4.35-14.14a.06.06,0,1,0-.11,0c2.63,8.2,3.14,16.48,8.45,23.38,2.88,3.75,5.76,7.22,7.66,11.71a40.06,40.06,0,0,1,3,14.84.13.13,0,1,0,.25,0A33.17,33.17,0,0,0,578.26,327Z" style="fill:#263238"></path><path d="M494.7,435.59c0-.2.07-.4.11-.6-.05.25-.1.49-.13.74C494.69,435.69,494.69,435.64,494.7,435.59Z" style="fill:#633FBD"></path><path d="M528,441.48a1.83,1.83,0,0,1-.34.18l0-.08h0l.35-.08Z" style="fill:#633FBD"></path><path d="M541.78,352.85c-20.84,21.12-47,65.54-42.16,74.55,5.44,10,34.45-19.57,34.34-21.3-.08-1.31,10.13-28.3,17.87-47.92S546.93,347.62,541.78,352.85Z" style="fill:#eb9481"></path><path d="M534.16,406.13c.88-2.89,14.77-38.47,18.74-49.72s.29-14.74-11-4.43S505.66,396.72,500,415c-5.46,17.6,3.6,17.6,15.56,9.49C525.34,417.84,534.16,406.13,534.16,406.13Z" style="fill:#a6a6a6"></path><path d="M554.4,350.33c0,.21,0,.42-.08.64a.73.73,0,0,1-.59.31.71.71,0,1,1,.67-.95Zm-23.64,14.89a.72.72,0,1,0,.71.71A.71.71,0,0,0,530.76,365.22Zm11.48,0a.72.72,0,1,0,.72.71A.71.71,0,0,0,542.24,365.22Zm-5.74-7.36a.72.72,0,1,0,.71.71A.71.71,0,0,0,536.5,357.86Zm11.48,0a.72.72,0,1,0,.72.71A.71.71,0,0,0,548,357.86Zm-28.7,22.72a.72.72,0,1,0,.71.72A.72.72,0,0,0,519.28,380.58Zm11.48,0a.72.72,0,1,0,.71.72A.71.71,0,0,0,530.76,380.58Zm11.48,0a.72.72,0,1,0,.72.72A.71.71,0,0,0,542.24,380.58ZM525,373.22a.72.72,0,1,0,.71.72A.72.72,0,0,0,525,373.22Zm11.48,0a.72.72,0,1,0,.71.72A.71.71,0,0,0,536.5,373.22ZM519.28,396a.71.71,0,1,0,.71.71A.71.71,0,0,0,519.28,396Zm11.48,0a.71.71,0,1,0,.71.71A.71.71,0,0,0,530.76,396Zm-17.23-7.36a.71.71,0,1,0,.72.71A.71.71,0,0,0,513.53,388.59Zm11.49,0a.71.71,0,1,0,.71.71A.71.71,0,0,0,525,388.59Zm11.48,0a.71.71,0,1,0,.71.71A.71.71,0,0,0,536.5,388.59Zm-28.71,22.72a.71.71,0,1,0,.71.71A.71.71,0,0,0,507.79,411.31Zm11.49,0a.71.71,0,1,0,.71.71A.71.71,0,0,0,519.28,411.31ZM513.53,404a.72.72,0,1,0,.72.71A.71.71,0,0,0,513.53,404ZM525,404a.72.72,0,1,0,.71.71A.71.71,0,0,0,525,404Zm-17.23,22.72a.72.72,0,1,0,.71.71A.71.71,0,0,0,507.79,426.67Zm-5.74-7.36a.72.72,0,1,0,.71.72A.71.71,0,0,0,502.05,419.31Zm11.48,0a.72.72,0,1,0,.72.72A.71.71,0,0,0,513.53,419.31Z" style="fill:#fff"></path><path d="M601.25,427.54A70.56,70.56,0,0,1,526,426.19l.16-.93,3-22.14s-7-12.3-2.94-21.12c2.06-4.46,20.15-32.26,27.78-37.78,7.14-5.19,17.51.36,21.38,4.43C589,363,596.06,390.39,601.25,427.54Z" style="fill:#c7c7c7"></path><path d="M526.19,425.27c.37-3.71.76-7.41,1.21-11.11s.85-7.4,1.34-11.09l.09.33a24.39,24.39,0,0,1-4.32-15.7,20.39,20.39,0,0,1,1.36-5.36,53.68,53.68,0,0,1,5.15-9.6,87.22,87.22,0,0,1,6.49-8.69c-2.13,2.92-4.11,5.94-6,9a63,63,0,0,0-4.83,9.6,19.34,19.34,0,0,0-1.24,5.12,25.28,25.28,0,0,0,.26,5.28,24.19,24.19,0,0,0,3.8,9.8l.11.16,0,.17c-.5,3.69-1.1,7.36-1.64,11.05S526.81,421.6,526.19,425.27Z" style="fill:#263238"></path><path d="M531.47,372.79a6.13,6.13,0,0,1,.26-1.47,12.77,12.77,0,0,1,.51-1.39,12.5,12.5,0,0,1,.66-1.32,10.23,10.23,0,0,1,.82-1.24,23.3,23.3,0,0,1-1,2.76C532.31,371,531.89,371.89,531.47,372.79Z" style="fill:#263238"></path><path d="M541.5,400.25a45.88,45.88,0,0,1,11.9,2c3.88,1.1,12.46,4.5,14.61,5.33,0,0,0,.11,0,.09a72.62,72.62,0,0,1-8.26-2.49c-3.81-1.29-7.64-2.46-11.54-3.47a53.73,53.73,0,0,0-6.68-1.21C541.35,400.46,541.35,400.24,541.5,400.25Z" style="fill:#263238"></path><path d="M534.42,402.29a36.79,36.79,0,0,1,12.49,1.11c.05,0,0,.1,0,.09-2.07-.25-4.14-.49-6.21-.66s-4.19-.28-6.27-.42A.06.06,0,0,1,534.42,402.29Z" style="fill:#263238"></path><path d="M499.62,427.4c4.69,6.71,17.45,8,49.3,14.23,4.4.86,18.86-28.6,14.2-29.76-5.87-1.47-29-5.88-30.68-6C517.86,405,496.44,422.85,499.62,427.4Z" style="fill:#eb9481"></path><path d="M556.75,410.42s13.49,2,20.25,5.3c9,4.37,15.06,11.87,17.39,15.17,4.86,6.87,11.86,26.86,6.45,29.88-4.89,2.74-11-18.06-11-18.06s9.75,20.17,3.25,22.38-12.23-22.33-12.23-22.33,9.54,20.95,2.48,22.17c-5.34.92-11.78-21-11.78-21s8.08,18.06,2.63,19.25c-6,1.31-13.24-18.57-13.24-18.57-14.35.68-21.46-4.87-26-9.42C533.77,434.07,556.75,410.42,556.75,410.42Z" style="fill:#eb9481"></path><path d="M586.9,435.52c1.23,2.33,2.49,4.68,3.51,7.11s2,4.89,2.74,7.41a44.79,44.79,0,0,1,2.14,10.07c-1-6-4.53-14.8-5.55-17.23s-1.92-4.9-2.93-7.32C586.78,435.5,586.87,435.47,586.9,435.52Z" style="fill:#263238"></path><path d="M578.06,439c1.45,3,3,6,4.3,9.11s2.26,6.14,3.35,9.31c.08.24-.08.21-.17,0-1.21-3.13-2.57-5.93-3.82-9s-2.38-6.27-3.73-9.32A0,0,0,1,1,578.06,439Z" style="fill:#263238"></path><path d="M569.93,440.7a74.26,74.26,0,0,1,5.5,14.43c.07.25-.13.18-.21-.07-1.74-4.83-3.07-8.63-5.44-14.28C569.74,440.69,569.88,440.6,569.93,440.7Z" style="fill:#263238"></path><path d="M559.57,410.42l-27.9,31.06S503.46,435,499.3,427.77c-2.74-4.76,18.5-24,34.54-21.8Z" style="fill:#a6a6a6"></path><path d="M520,412a.72.72,0,1,1-.71-.71A.71.71,0,0,1,520,412Zm10.77-.71a.71.71,0,1,0,.71.71A.71.71,0,0,0,530.76,411.31Zm11.48,0a.71.71,0,1,0,.72.71A.71.71,0,0,0,542.24,411.31Zm11.49,0a.71.71,0,1,0,.71.71A.71.71,0,0,0,553.73,411.31Zm-45.94,15.36a.72.72,0,1,0,.71.71A.71.71,0,0,0,507.79,426.67Zm11.49,0a.72.72,0,1,0,.71.71A.71.71,0,0,0,519.28,426.67Zm11.48,0a.72.72,0,1,0,.71.71A.71.71,0,0,0,530.76,426.67Zm11.48,0a.72.72,0,1,0,.72.71A.71.71,0,0,0,542.24,426.67Zm-28.71-7.36a.72.72,0,1,0,.72.72A.71.71,0,0,0,513.53,419.31Zm11.49,0a.72.72,0,1,0,.71.72A.72.72,0,0,0,525,419.31Zm11.48,0a.72.72,0,1,0,.71.72A.71.71,0,0,0,536.5,419.31Zm11.48,0a.72.72,0,1,0,.72.72A.71.71,0,0,0,548,419.31Zm-34.45,15.37a.71.71,0,1,0,.72.71A.71.71,0,0,0,513.53,434.68Zm11.49,0a.71.71,0,1,0,.71.71A.71.71,0,0,0,525,434.68Zm11.48,0a.72.72,0,0,0,0,1.43l.71-.79h0A.72.72,0,0,0,536.5,434.67Z" style="fill:#fff"></path><path d="M514.71,411a27.82,27.82,0,0,1,19.15-5.08c.08,0,.08.14,0,.14-7-.2-16.45,3.46-19.09,5.06C514.7,411.18,514.64,411.07,514.71,411Z" style="fill:#263238"></path><path d="M524,436.28c2.88-3.58,6-7,9-10.42s6.16-6.84,9.33-10.18c1.79-1.88,3.57-3.78,5.43-5.6,0-.05.14,0,.1.07-2.88,3.58-5.94,7-9,10.45s-6.16,6.84-9.29,10.22c-1.77,1.91-3.57,3.78-5.43,5.61C524.13,436.52,524,436.39,524,436.28Z" style="fill:#263238"></path><path d="M559.62,410a40.79,40.79,0,0,0-5.23-1.19q-2.64-.49-5.3-.91c-3.51-.57-10.9-2.16-17.4-2.14-.07,0,.3.34.37.34,3.09-.17,25.25,4.24,27.07,4.37a2.58,2.58,0,0,0-.19.37c0,.09,0,.21.15.14s.39-.34.6-.51A.26.26,0,0,0,559.62,410Z" style="fill:#263238"></path><path d="M580.45,350.58c26.66,23.26,47.63,52,46.27,59.17-2.54,13.37-20.15,14.21-22.82,11.32-10.79-11.7-22.18-34.36-34.53-59.64C558.35,338.84,571.67,342.92,580.45,350.58Z" style="fill:#a6a6a6"></path><path d="M575.6,349.86a.72.72,0,1,1-.72-.72A.71.71,0,0,1,575.6,349.86Zm-.72,14.65a.71.71,0,1,0,.72.71A.71.71,0,0,0,574.88,364.51Zm11.49,0a.71.71,0,1,0,.71.71A.71.71,0,0,0,586.37,364.51Zm-17.23-7.36a.71.71,0,1,0,.71.71A.71.71,0,0,0,569.14,357.15Zm11.48,0a.71.71,0,1,0,.72.71A.71.71,0,0,0,580.62,357.15Zm5.75,22.72a.71.71,0,1,0,0,1.42.71.71,0,0,0,0-1.42Zm11.48,0a.71.71,0,1,0,.71.71A.71.71,0,0,0,597.85,379.87Zm11.24,0a.71.71,0,0,0,.25,1.38.73.73,0,0,0,.61-.35C609.65,380.6,609.37,380.25,609.09,379.91Zm-28.47-7.4a.72.72,0,1,0,.72.71A.71.71,0,0,0,580.62,372.51Zm11.49,0a.72.72,0,1,0,.71.71A.71.71,0,0,0,592.11,372.51Zm10.88.34a.76.76,0,0,0-.1.37.71.71,0,0,0,.71.72.57.57,0,0,0,.29-.07C603.6,373.53,603.29,373.19,603,372.85Zm-16.35,22.43c.14.27.28.53.43.78a.45.45,0,0,0,0-.12A.71.71,0,0,0,586.64,395.28Zm11.21,0a.72.72,0,1,0,.71.71A.71.71,0,0,0,597.85,395.23Zm11.48,0a.72.72,0,1,0,.72.71A.71.71,0,0,0,609.33,395.23Zm11.22,0h0a.72.72,0,0,0,.28,1.38.74.74,0,0,0,.48-.19C621.06,396.08,620.81,395.68,620.55,395.28Zm-28.44-7.41a.72.72,0,1,0,.71.72A.71.71,0,0,0,592.11,387.87Zm11.48,0a.72.72,0,1,0,.72.72A.71.71,0,0,0,603.59,387.87Zm12.19.57s0,0,0,0h0l-.34-.44a.71.71,0,1,0-.35,1.33.71.71,0,0,0,.71-.71A.81.81,0,0,0,615.78,388.44Zm-17.93,22.15a.72.72,0,1,0,.71.72A.71.71,0,0,0,597.85,410.59Zm11.48,0a.72.72,0,1,0,.72.72A.71.71,0,0,0,609.33,410.59Zm11.49,0a.72.72,0,1,0,.71.72A.71.71,0,0,0,620.82,410.59Zm-28.71-7.35a.71.71,0,1,0,.71.71A.71.71,0,0,0,592.11,403.24Zm11.48,0a.71.71,0,1,0,.72.71A.71.71,0,0,0,603.59,403.24Zm11.49,0a.71.71,0,1,0,.71.71A.71.71,0,0,0,615.08,403.24ZM603.59,418.6a.71.71,0,1,0,.72.71A.71.71,0,0,0,603.59,418.6Zm11.49,0a.71.71,0,1,0,0,1.42.71.71,0,0,0,0-1.42Z" style="fill:#fff"></path><path d="M599.51,415.84c-2-3-3.8-6.16-5.66-9.24s-3.72-6.21-5.54-9.33c-3.59-6.18-6.92-12.5-10.13-18.87-1.82-3.62-3.67-7.21-5.4-10.87,0-.11-.25,0-.2.09q2.5,6.38,5.4,12.55l-.1-.13c-.44-.58-.87-1.17-1.29-1.76-.83-1.16-1.62-2.35-2.37-3.56-.06-.1-.2,0-.15.09a40.85,40.85,0,0,0,2.92,4.77,22.41,22.41,0,0,0,1.67,2.11l.05.05c.88,1.83,1.79,3.66,2.73,5.46A214.54,214.54,0,0,0,592.32,406c1.12,1.7,2.24,3.4,3.41,5.06s2.43,3.28,3.63,4.92C599.43,416,599.56,415.93,599.51,415.84Z" style="fill:#263238"></path><path d="M608.32,418.48c-5.05-7.25-2.49-21.68,3.06-56.26.76-4.79,37.1-5.16,36.54,0-.7,6.49-7.17,32.14-8.86,35.91C630.81,416.59,611.74,423.4,608.32,418.48Z" style="fill:#eb9481"></path><path d="M649.1,347.85c-1.4-11-3.45-13.61.3-23.53,2.46-6.51-.64-10.87-6.06-6.07-8.85,7.85-10,22.43-9,27.6Z" style="fill:#eb9481"></path><path d="M614,307.43l-13.17,44.3c-.54,1.29.08,2.39,1.37,2.44l23.11,1a3.72,3.72,0,0,0,3.3-2.24l13.18-44.31c.53-1.3-.08-2.39-1.37-2.44l-23.11-1A3.74,3.74,0,0,0,614,307.43Z" style="fill:#263238"></path><path d="M616.7,307.52l-13.18,44.3c-.53,1.3.08,2.39,1.37,2.45l23.11,1a3.75,3.75,0,0,0,3.31-2.24l13.17-44.31c.54-1.29-.08-2.39-1.37-2.44l-23.1-1A3.74,3.74,0,0,0,616.7,307.52Z" style="fill:#455a64"></path><path d="M623,309.83a2,2,0,1,1-1.84-2.09A2,2,0,0,1,623,309.83Z" style="fill:#263238"></path><path d="M643.4,379s6.58-14.29,6.25-26.17c-.23-8.21-2.73-26-24.19-37.88-5.09-2.81-14.34-3.21-7.69,4.4,4.72,5.41,9.34,7.42,11.52,11.06,0,0-11.83.89-14.45,6.1a108.17,108.17,0,0,0-5.87,14.1,24.26,24.26,0,0,0,2.54,1.34s-2,5.09.94,12.88Z" style="fill:#eb9481"></path><path d="M648.17,345c-2.92-3.16-9.22-9.76-16.26-13.37-7.81-4-23.94-9.61-26.84-3.81-2.12,4.25,3.85,6.94,3.85,6.94s-7.16-.92-8.23,3.34c-1,3.89,3.76,5.68,3.76,5.68s-4.44.2-4.66,4.12c-.28,4.72,9.06,3.54,12.92,8.55C613.57,357.56,648.17,345,648.17,345Z" style="fill:#eb9481"></path><path d="M629.06,340.58c-3.23-2.53-12-6.38-20-5.95-.18,0-.27.15-.1.18a85.83,85.83,0,0,1,20,5.84C629.07,340.67,629.1,340.6,629.06,340.58Z" style="fill:#263238"></path><path d="M624.79,348.35c-3-1.9-12.28-5.45-20.31-4.74-.18,0-.26.16-.09.18a92.15,92.15,0,0,1,20.37,4.63S624.83,348.37,624.79,348.35Z" style="fill:#263238"></path><path d="M648.5,373.93l-42.13,11.95s-8.4,27.62-3.06,34.55c5.71,7.4,32.24-4.07,37.51-20.21Z" style="fill:#a6a6a6"></path><path d="M633,380.58a.71.71,0,0,1-1.42,0,.71.71,0,1,1,1.42,0Zm10.78-.71a.71.71,0,1,0,0,1.42.71.71,0,0,0,0-1.42Zm-34.46,15.36a.72.72,0,1,0,.72.71A.71.71,0,0,0,609.33,395.23Zm11.49,0a.72.72,0,0,0,0,1.43.72.72,0,0,0,0-1.43Zm11.48,0a.72.72,0,1,0,.71.71A.71.71,0,0,0,632.3,395.23Zm-17.22-7.36a.72.72,0,1,0,.71.72A.72.72,0,0,0,615.08,387.87Zm11.48,0a.72.72,0,1,0,.71.72A.71.71,0,0,0,626.56,387.87Zm11.48,0a.72.72,0,1,0,.72.72A.71.71,0,0,0,638,387.87Zm-28.71,22.72a.72.72,0,1,0,.72.72A.71.71,0,0,0,609.33,410.59Zm11.49,0a.72.72,0,1,0,.71.72A.71.71,0,0,0,620.82,410.59Zm11.48,0a.72.72,0,0,0,0,1.43.72.72,0,0,0,0-1.43Zm-28.71-7.35a.71.71,0,1,0,.72.71A.71.71,0,0,0,603.59,403.24Zm11.49,0a.71.71,0,1,0,.71.71A.71.71,0,0,0,615.08,403.24Zm11.48,0a.71.71,0,1,0,.71.71A.71.71,0,0,0,626.56,403.24Zm11.48,0a.71.71,0,1,0,.72.71A.71.71,0,0,0,638,403.24ZM603.59,418.6a.71.71,0,1,0,.72.71A.71.71,0,0,0,603.59,418.6Zm11.49,0a.71.71,0,1,0,0,1.42.71.71,0,0,0,0-1.42Z" style="fill:#fff"></path><path d="M607.75,395.46c4.7-1.06,9.34-2.38,14-3.71s9.29-2.65,13.89-4.09c2.61-.82,5.22-1.62,7.79-2.53.07,0,.05-.14,0-.12-4.69,1.06-9.34,2.36-14,3.65s-9.29,2.65-13.92,4c-2.61.79-5.21,1.62-7.78,2.53C607.57,395.27,607.61,395.5,607.75,395.46Z" style="fill:#263238"></path><path d="M607.87,385.42c-.66.07-1.31.21-2,.33a.3.3,0,0,0-.2.22c-.72,2.44-1.23,5-1.74,7.47s-1,4.95-1.36,7.44q-.33,2-.57,4a14.69,14.69,0,0,0-1.46,5.2.09.09,0,0,0,.17,0,17.69,17.69,0,0,1,1.24-4.68,33,33,0,0,0,.26,9.86s0,0,0,0c-.83-4.86.39-9.94,1.19-14.73.41-2.4.86-4.79,1.33-7.17s1-4.75,1.46-7.13c.56-.21,1.12-.42,1.66-.68C608,385.55,608,385.42,607.87,385.42Z" style="fill:#263238"></path><path d="M564.89,342.63c-.22,1.39-6.09,10.74-12.36,10.91-2,0-2.82-11.09-2.82-11.09l-.24-.81-3.42-11.33,12.89-9.67,1.87-1.29s.73,3.16,1.6,7.11c.05.18.09.36.13.56s.11.43.15.64c.14.59.28,1.19.4,1.79s.19.9.28,1.38.18,1,.28,1.44A75.59,75.59,0,0,1,564.89,342.63Z" style="fill:#eb9481"></path><path d="M564.78,340.51c-8.72,1.57-13.76-.49-16.36-2.33l-2.37-7.87,12.89-9.67,1.87-1.28s.73,3.15,1.6,7.1c0,.18.08.36.13.56s.11.43.15.64c.14.59.28,1.19.4,1.79s.19.9.27,1.39.19,1,.29,1.43C564.2,335.34,564.59,338.49,564.78,340.51Z" style="fill:#263238"></path><path d="M571.11,311.74c3.92,20.39-7.85,25-12.25,25.89-4,.76-17.68,2.85-23.69-17s2.23-28.15,11.27-30.38S567.19,291.34,571.11,311.74Z" style="fill:#eb9481"></path><path d="M567.26,307.84a13.76,13.76,0,0,1-1.43-.11,2.27,2.27,0,0,1-1.44-.38.74.74,0,0,1-.12-.89,1.82,1.82,0,0,1,1.73-.67,2.69,2.69,0,0,1,1.81.71A.79.79,0,0,1,567.26,307.84Z" style="fill:#263238"></path><path d="M552.67,309.05a12.79,12.79,0,0,0,1.36-.46,2.34,2.34,0,0,0,1.3-.74.74.74,0,0,0-.11-.89,1.85,1.85,0,0,0-1.85-.21,2.7,2.7,0,0,0-1.56,1.15A.79.79,0,0,0,552.67,309.05Z" style="fill:#263238"></path><path d="M557.08,314.76c0-.06-.1.08-.09.13.25,1.4.3,3-.9,3.68,0,0,0,.09,0,.08C557.62,318.21,557.54,316,557.08,314.76Z" style="fill:#263238"></path><path d="M555.62,313.47c-2.27.16-1.8,4.7.31,4.56S557.53,313.35,555.62,313.47Z" style="fill:#263238"></path><path d="M554.76,313.81c-.37.3-.71.79-1.19.89s-1-.32-1.42-.74c0,0-.08,0-.07.06.07.87.5,1.73,1.45,1.76s1.39-.8,1.52-1.7C555.07,313.91,554.9,313.69,554.76,313.81Z" style="fill:#263238"></path><path d="M565.26,313.34c0-.06.12.05.12.11.12,1.41.49,3,1.81,3.33,0,0,0,.08,0,.08C565.61,316.82,565.14,314.69,565.26,313.34Z" style="fill:#263238"></path><path d="M566.34,311.73c2.24-.43,2.94,4.08.86,4.48S564.47,312.09,566.34,311.73Z" style="fill:#263238"></path><path d="M567.33,311.88c.39.18.81.56,1.24.53s.79-.59,1-1.11c0-.05.06,0,.07,0,.16.86,0,1.8-.79,2.09s-1.4-.38-1.74-1.21C567.09,312.07,567.17,311.81,567.33,311.88Z" style="fill:#263238"></path><path d="M558.71,325.69c.36.31.72.75,1.24.76a3.77,3.77,0,0,0,1.49-.44s.09,0,.07.06a1.92,1.92,0,0,1-1.75.88,1.52,1.52,0,0,1-1.18-1.19C558.55,325.68,558.66,325.65,558.71,325.69Z" style="fill:#263238"></path><path d="M564,319.93s.53,2.06.65,3.05c0,.1-.22.17-.56.23,0,0,0,0,0,0a4.73,4.73,0,0,1-4.77-1.22c-.08-.09,0-.21.13-.16a7.08,7.08,0,0,0,4.44.73c0-.28-1-3.5-.88-3.53a8.36,8.36,0,0,1,2.31.25c-1-4.33-2.66-8.47-3.58-12.8a.13.13,0,0,1,.25-.09c2.06,4.21,3.31,9.17,4.44,13.61C566.53,320.56,564.41,320.05,564,319.93Z" style="fill:#263238"></path><path d="M536,320.78c5.12-.59,5.36-16.49,5.37-18.44.06,1.23.4,7.74.91,8a4.92,4.92,0,0,0,1.59-.43h0a16.61,16.61,0,0,1,0-2.34c0-.37.2.77.51,2.16.28-.11.59-.23.93-.34a18.71,18.71,0,0,1,.09-5c.11-.62.49,2.12,1.27,4.49a62,62,0,0,1,13.25-3.44c1.27-.15,2.38-.22,3.36-.25-.14-1.92-.53-3.94-.35-3.51a18.9,18.9,0,0,1,1.08,3.5c.53,0,1,0,1.47,0-.08-2.72-1.71-6.94-1.23-6.31a19.24,19.24,0,0,1,3.15,6.46c1.87.21,2.41.53,2.42.05,0-.87-1.63-8.37-8-13.46-6.89-5.53-19.81-6-26.29,3.85,0,0-5.63,4.35-6.07,10.67S533.05,321.11,536,320.78Z" style="fill:#263238"></path><path d="M554.74,322.58a6.4,6.4,0,1,1,6-8.17h0a6.41,6.41,0,0,1-4.37,7.92A6.67,6.67,0,0,1,554.74,322.58Zm-.37-11.94a5.85,5.85,0,0,0-1.36.22,5.51,5.51,0,1,0,1.36-.22Z" style="fill:#fff"></path><path d="M569.25,320.33c-2.45.08-4.74-2.36-5.24-5.66a7.66,7.66,0,0,1,.68-4.62,4,4,0,0,1,6.75-1,7.65,7.65,0,0,1,2,4.23c.52,3.48-1.17,6.64-3.76,7A2,2,0,0,1,569.25,320.33Zm-1-11.87a1.66,1.66,0,0,0-.32,0,3.4,3.4,0,0,0-2.46,1.95,6.85,6.85,0,0,0-.59,4.11c.45,3,2.54,5.22,4.68,4.9s3.5-3,3.05-6.06a6.78,6.78,0,0,0-1.76-3.75A3.53,3.53,0,0,0,568.23,308.46Z" style="fill:#fff"></path><path d="M560.59,315.17l-.64-.56c.84-.95,2.89-2.37,4.68-.94l-.53.67C562.5,313.06,560.66,315.09,560.59,315.17Z" style="fill:#fff"></path><path d="M533.93,321.05l-.81-.27c.13-.38,1.31-3.71,3.15-4.29s11.94-1.22,12.43-1.25l0,.85c-3.29.18-10.88.79-12.21,1.21S534.24,320.14,533.93,321.05Z" style="fill:#fff"></path><path d="M539.37,321s-5.18-6-7.94-4.06,1.6,10.9,5.17,11.82a3.51,3.51,0,0,0,4.49-2.36Z" style="fill:#eb9481"></path><path d="M532.74,319.5s0,.08,0,.1c2.51.72,4,2.82,5.13,5a1.93,1.93,0,0,0-2.94-.23c0,.05,0,.14.08.12a2.16,2.16,0,0,1,2.44.51,10.71,10.71,0,0,1,1.34,1.79c.13.21.51.05.4-.19l0,0C538.91,323.52,536.07,319.47,532.74,319.5Z" style="fill:#263238"></path><path d="M535.08,294c-.09,1.52-7.31,5.17-12.49,1.28s-3-11.58,4.06-10.82C531.12,284.94,535.26,290.78,535.08,294Z" style="fill:#263238"></path><path d="M520,288.42a8.83,8.83,0,0,1,3.93-4.38,5.36,5.36,0,0,1,5.38,0,10.87,10.87,0,0,1,4,4.22A17,17,0,0,1,534.5,291a8.24,8.24,0,0,1,.58,3,7.35,7.35,0,0,0,0-3.13,13.41,13.41,0,0,0-1-3,10.51,10.51,0,0,0-4.21-4.82,6.22,6.22,0,0,0-3.25-.8,6.33,6.33,0,0,0-3.13,1A7.87,7.87,0,0,0,520,288.42Z" style="fill:#263238"></path><path d="M528,441.49l-.34.09h0Z" style="fill:#eb9481"></path><path d="M494.81,435c-.05.25-.1.49-.13.74,0,0,0-.09,0-.14S494.77,435.19,494.81,435Z" style="fill:#633FBD"></path><path d="M494.81,435c-.05.25-.1.49-.13.74,0,0,0-.09,0-.14S494.77,435.19,494.81,435Z" style="fill:#633FBD"></path><path d="M529.53,445.1h0l-1.08.25Z" style="fill:#633FBD"></path><path d="M494.81,435c-.05.25-.1.49-.13.74,0,0,0-.09,0-.14S494.77,435.19,494.81,435Z" style="fill:#dbdbdb"></path></g><g id="freepik--character-3--inject-2"><path d="M196.83,351.86c5.83,8.63,36.3,49.9,52.73,49.28,19.91-.75,44.23-8.71,54.35-15.57,5.67-3.84-14-31.37-19.49-28.56-8.72,4.44-29,10.85-32.5,11.62S223,350.42,207.73,342.1C194,334.6,192.72,345.79,196.83,351.86Z" style="fill: rgb(235, 148, 129);"></path><path d="M302.93,385.88c3.76-1.57,23.61-11.3,27.68-14.76s15.08-14.27,12.74-17.65-5.8-.49-5.8-.49,3.92-5.3,1.26-8.49-7.91,1.5-7.91,1.5,3.63-5.74.75-8.74-7.38,2.61-7.38,2.61,3.57-5.08.16-6.56c-4.11-1.77-9.62,8.36-14.41,11.84-1.08.79-23.15,14.46-23.15,14.46Z" style="fill: rgb(235, 148, 129);"></path><path d="M324.67,339.39c-4.07,7.44-7.14,10-14.44,14-.14.07-.05.3.1.24,7.51-3.32,11.82-6,14.71-14.1C325.18,339.17,324.86,339,324.67,339.39Z" style="fill:#263238"></path><path d="M331.21,345.39c-4.9,7.36-8.21,10.15-15.54,14.95-.1.07,0,.25.11.19,7.59-4.11,11.83-6.84,15.76-14.83C331.72,345.34,331.43,345.06,331.21,345.39Z" style="fill:#263238"></path><path d="M337.17,353.22c-5.27,6.77-8.76,10-16.47,13.74a.16.16,0,0,0,.12.29c8.24-3.06,12.62-7,16.53-13.85C337.62,352.93,337.5,352.79,337.17,353.22Z" style="fill:#263238"></path><path d="M278.84,362.22s3.79-9.92,6.41-13.92,17.89-15.26,20.52-12.1c3.38,4.07-4.15,12.32-8.36,15.87,0,0,7.84,9.43,3.71,16.52S278.84,362.22,278.84,362.22Z" style="fill: rgb(235, 148, 129);"></path><path d="M306.33,337.62c.4,5.95-5.43,10.26-9.26,14a.49.49,0,0,0,.1.8c3,4.17,6.07,10.94,4.28,16.07a.12.12,0,1,0,.22.1c2.67-5.24.22-12.13-3.39-16.49,4-3.79,9.66-8.37,8.11-14.49C306.38,337.58,306.33,337.58,306.33,337.62Z" style="fill:#263238"></path><path d="M277.64,358.56l17.55,35.17s-38.47,14.89-53.45,6.52-38.13-37.12-42.94-43.68c-10.55-14.36-2.27-21.88,9.49-14.56S249.15,367.2,251,367.7,277.64,358.56,277.64,358.56Z" style="fill:#633FBD"></path><path d="M238.44,398.16c-14.87-10.26-35.17-35.5-39.64-41.6-9.57-13-3.65-20.42,6.34-16.19Z" style="opacity:0.1"></path><path d="M285.72,394.67c-2.23-3.87-4.26-7.86-6.27-11.85s-4-8-6-12c-1.08-2.29-2.18-4.57-3.18-6.9,0-.06.07-.12.1-.06,2.23,3.86,4.28,7.85,6.31,11.82s4,8,6,12c1.11,2.27,2.18,4.57,3.18,6.89C286,394.67,285.78,394.78,285.72,394.67Z" style="fill:#455a64"></path><path d="M231.61,420.13a70.57,70.57,0,0,1-81.3-4.24c3.86-20,13.33-54.24,32.95-76.78,5.47-6.29,20.4-4.45,22.14-1.92C217.11,354.2,227.5,398.58,231.61,420.13Z" style="fill:#633FBD"></path><polygon points="215.63 434.71 258.72 444.82 281.17 385.74 238.08 375.63 215.63 434.71" style="fill:#a6a6a6"></polygon><polygon points="217.74 435.21 260.84 445.32 283.29 386.24 240.2 376.13 217.74 435.21" style="fill:#c7c7c7"></polygon><path d="M256.8,409.38a4.77,4.77,0,0,1-5.54,3.12,3.88,3.88,0,0,1-2.84-5.09,4.81,4.81,0,0,1,5.54-3.12A3.87,3.87,0,0,1,256.8,409.38Z" style="fill:#fff"></path><path d="M175.49,347.2c-12.46,17.35-39.27,57-31.36,66.13,13,15.05,44.75,28.23,54.7,31.21,4.29,1.29,19.66-29.91,15.61-32.47-4.86-3.08-36-15.3-36.11-16.8-.17-1.66,5.65-23,7.57-39.84C188.27,334.53,180.69,340,175.49,347.2Z" style="fill: rgb(235, 148, 129);"></path><path d="M198.8,409.88s13.08-3.83,21.76-5.94c4.83-1.17,13.31-2.45,17.26-1.68,5.9,1.14,29.88,9.68,27.94,15.54-1.77,5.3-21.43-4.66-21.43-4.66s20.73,8.3,17.44,14.29-24-8.21-24-8.21,21.12,9,16.74,14.64c-3.31,4.27-22.8-7.54-22.8-7.54s18.09,7.86,14.88,12.39c-3.55,5-22.23-4.75-22.23-4.75-10.1,10.14-18.87,11.5-25.5,10.58C197.28,444.33,198.8,409.88,198.8,409.88Z" style="fill: rgb(235, 148, 129);"></path><path d="M238.31,410.24c15.74,4.94,21.94,12.19,21.74,12-4.82-3.76-13.29-7.84-15.67-8.94s-3.74-1.9-6.12-3C238.2,410.3,238.25,410.22,238.31,410.24Z" style="fill:#263238"></path><path d="M233.2,418.35a56.06,56.06,0,0,1,18,8.41c.21.16.09.21-.14.09-3-1.48-14.85-7.09-17.9-8.43C233.12,418.4,233.15,418.34,233.2,418.35Z" style="fill:#263238"></path><path d="M228.34,425A41.64,41.64,0,0,1,242.09,432c.21.15,0,.22-.21.1-4.53-2.39-8.06-4.3-13.6-6.85C228.19,425.17,228.23,425,228.34,425Z" style="fill:#263238"></path><path d="M204.87,407.24l-17.51,37.34s-41.74-22.49-44.89-33.06S167.7,354.46,176.32,345s11.43-5.6,11.18,5.22-8.74,44.54-8.54,45.17S204.87,407.24,204.87,407.24Z" style="fill:#633FBD"></path><path d="M182.07,379.44q.85-3.79,1.65-7.59c.28-1.32.55-2.64.85-4,.14-.61.27-1.21.41-1.82.06-.3.16-.6.21-.9a4.69,4.69,0,0,1,.3-1.2c0-.07.14-.06.13,0-.07.69.07.42-.06.94a10.05,10.05,0,0,0-.21,1.2c-.09.61-.19,1.23-.29,1.84q-.3,1.88-.66,3.75c0,.16-.07.33-.1.49a.57.57,0,0,0,0-.14c.47-1.35.95-2.7,1.42-4,0-.06.11,0,.1,0-.32,1.4-.69,2.78-1.14,4.14-.26.79-.57,1.55-.88,2.32-.33,1.67-.65,3.33-1,5-1.09,5.15-2.21,10.32-3.7,15.36,2.18,1,4.41,1.9,6.6,2.91s4.36,2,6.54,3.08,4.36,2.06,6.51,3.13c1,.51,2.05,1,3.08,1.56s2.16,1.27,3.29,1.81c.11.05,0,.22-.1.17-1.17-.54-2.42-.93-3.61-1.45-1-.45-2.08-.89-3.11-1.35-2.21-1-4.39-2-6.58-3s-4.37-2-6.54-3.08-4.28-2.19-6.44-3.24a.27.27,0,0,1-.14-.16.29.29,0,0,1-.12-.29C179.6,389.74,180.91,384.61,182.07,379.44Z" style="fill:#263238"></path><path d="M187.47,422c1.3-2.7,6.59-13.49,8.11-16.06,0,0,.1,0,.08,0-1,2.74-5.88,13.54-7.18,16.25a164.48,164.48,0,0,1-8.26,16c-.06.09-.23,0-.18-.08C182.15,432.58,184.9,427.31,187.47,422Z" style="fill:#263238"></path><path d="M157.32,426.11c1,.55,1.86,1.23,2.77,1.86l2.83,1.95c1.85,1.29,3.7,2.62,5.67,3.72a.1.1,0,0,1-.1.17c-2-1.14-4-2.2-6-3.45a28.71,28.71,0,0,1-5.31-4.12A.08.08,0,0,1,157.32,426.11Z" style="fill:#263238"></path><path d="M203.54,350.74c-4.6,1.65-13.53-4.65-17.4-10.14-.26-.38-.13-4.68-.21-9.91-.06-3.17-.21-6.7-.57-9.92l20.71,2.61a51.73,51.73,0,0,0-.54,12.56,6.6,6.6,0,0,0,.29,1.31c0,.06,0,.13.05.21C206.56,339.92,208,349.13,203.54,350.74Z" style="fill: rgb(235, 148, 129);"></path><path d="M205.53,335.94a6.26,6.26,0,0,0,.24,1.13c-10.15-.56-16.4-5.33-19.93-9.41-.08-2.29-.23-4.67-.48-6.89l20.71,2.61A51.77,51.77,0,0,0,205.53,335.94Z" style="fill:#263238"></path><path d="M178.38,298.63c-.9,7.47,6.47,27.26,12.32,30.93,8.48,5.32,20.55,3.82,24.61-6,3.93-9.47-6.14-35.1-12.5-38.25C193.44,280.72,179.71,287.6,178.38,298.63Z" style="fill: rgb(235, 148, 129);"></path><path d="M199.35,306.92s-.08.11-.06.16c.54,1.32.92,2.92-.12,3.81,0,0,0,.09,0,.07C200.61,310.21,200.07,308.09,199.35,306.92Z" style="fill:#263238"></path><path d="M197.65,306c-2.21.62-.8,5,1.25,4.41S199.5,305.44,197.65,306Z" style="fill:#263238"></path><path d="M207.5,304s.12,0,.14.09c.4,1.37,1.08,2.87,2.45,2.92,0,0,.06.07,0,.08C208.54,307.38,207.65,305.38,207.5,304Z" style="fill:#263238"></path><path d="M208.25,302.22c2.12-.87,3.71,3.44,1.74,4.25S206.47,303,208.25,302.22Z" style="fill:#263238"></path><path d="M195.28,304.53c.54-.35,1-.75,1.5-1.15a3,3,0,0,0,1.3-1.46,1,1,0,0,0-.51-1.07,2.44,2.44,0,0,0-2.38.51,3.59,3.59,0,0,0-1.47,2.09A1,1,0,0,0,195.28,304.53Z" style="fill:#263238"></path><path d="M209.23,299.47a17.11,17.11,0,0,1-1.89.11,3,3,0,0,1-1.94-.25,1,1,0,0,1-.31-1.15,2.39,2.39,0,0,1,2.14-1.16,3.52,3.52,0,0,1,2.48.62A1,1,0,0,1,209.23,299.47Z" style="fill:#263238"></path><path d="M202.5,319.59a2.25,2.25,0,0,0,1.4.43,3.92,3.92,0,0,0,1.35-.82s.09,0,.08.05a1.94,1.94,0,0,1-1.48,1.3,1.52,1.52,0,0,1-1.46-.86C202.35,319.62,202.44,319.56,202.5,319.59Z" style="fill:#263238"></path><path d="M202.62,315.08a4.82,4.82,0,0,0,3.74,1.05,5.92,5.92,0,0,0,1.68-.46,1.73,1.73,0,0,0,.31-.14l.28-.14a.35.35,0,0,0,.17-.39h0a.52.52,0,0,0-.06-.13h0l0-.12c-.31-1.05-.93-2.61-.93-2.61.45.07,2.67.32,2.46-.22-1.72-4.42-3.64-9.34-6.3-13.37a.13.13,0,0,0-.23.11c1.49,4.32,3.73,8.34,5.3,12.65a8.55,8.55,0,0,0-2.39,0c-.14.09,1.24,3,1.34,3.46a.18.18,0,0,0,0,.05c-1.68.79-3.18.69-5.26.06C202.58,314.87,202.5,315,202.62,315.08Z" style="fill:#263238"></path><path d="M207.28,315.52a5.75,5.75,0,0,1-1.75,2.33,2.62,2.62,0,0,1-1.49.51c-1.17,0-1.48-1-1.51-1.9a6.25,6.25,0,0,1,.13-1.45A7.5,7.5,0,0,0,207.28,315.52Z" style="fill:#263238"></path><path d="M205.53,317.85a2.62,2.62,0,0,1-1.49.51c-1.17,0-1.48-1-1.51-1.9A2.66,2.66,0,0,1,205.53,317.85Z" style="fill:#ff9cbd"></path><path d="M185.36,314.18c3.42-1.21.62-9.64.62-9.64S191,302,191.52,294c0,0,8.09,2.32,13.53-.38,8.53-4.24,4.91-15.86.85-17.27-5.74-2-12.83,5.38-12.83,5.38s-13.9.13-15.22,9.94a6.87,6.87,0,0,0-4.23,8.36C175.06,306.48,182.8,315.09,185.36,314.18Z" style="fill:#263238"></path><path d="M185,305.9a12.33,12.33,0,0,0,5.66-5.62,9.22,9.22,0,0,0-.23-8.46c-.08-.14.14-.26.22-.12,1.5,2.79,2.2,5.89,1,8.95a8.61,8.61,0,0,1-6.6,5.5A.13.13,0,0,1,185,305.9Z" style="fill:#263238"></path><path d="M172.09,296.44c1.12-2.76,3.73-3.89,6.43-4.57a.12.12,0,0,1,0,.24c-2.72.46-4.86,3-5.61,5.53s.34,5.08,1.56,7.25a19.42,19.42,0,0,0,10.68,9,.06.06,0,0,1,0,.12,19.49,19.49,0,0,1-11.9-9.77C172.1,301.9,171.05,299,172.09,296.44Z" style="fill:#263238"></path><path d="M192.84,282.24a9.15,9.15,0,0,1,3.85-5.21,10.89,10.89,0,0,1,7.69-1.4,6.19,6.19,0,0,1,4.58,4.15,11,11,0,0,1-.44,7.33.06.06,0,0,1-.11,0,10.88,10.88,0,0,0,.1-6.56,5.7,5.7,0,0,0-4.61-3.91c-4.17-.57-9.49,1.26-10.83,5.72C193,282.47,192.8,282.39,192.84,282.24Z" style="fill:#263238"></path><path d="M185.72,314.53s-5.92-5.68-8.59-3.44,2.7,11.1,6.47,11.71a3.65,3.65,0,0,0,4.41-2.87Z" style="fill: rgb(235, 148, 129);"></path><path d="M178.73,313.59a.05.05,0,0,0,0,.1c2.66.51,4.41,2.53,5.79,4.72a2,2,0,0,0-3.06,0c-.05.06,0,.14.1.12a2.24,2.24,0,0,1,2.57.28,11,11,0,0,1,1.54,1.73c.16.2.54,0,.4-.24l0-.05C185.48,317.15,182.17,313.24,178.73,313.59Z" style="fill:#263238"></path><path d="M205.81,337l-4.41,12.19L186,334.66l-4,5s15.44,23.47,15.49,22.38L202,351.56l7.38,6.9-1.26-18Z" style="fill:#fff"></path><path d="M209.24,349.54c-.31-3-.54-6-1-8.89,0-.1-.18-.14-.21,0-.48,2.89.76,14.2.85,16.92l0,0c-.3-.3-6.82-6.06-6.88-6-1,1.68-4.34,9.31-4.56,10-2.44-3.73-11.77-17.26-14.62-20.77a.11.11,0,0,0-.18.11c2.18,3.95,14.54,22.18,14.72,22.13A115.86,115.86,0,0,0,202.07,352c1.12,1.27,7.73,7.79,7.73,7.35A96.42,96.42,0,0,0,209.24,349.54Z" style="fill:#263238"></path></g><g id="freepik--character-2--inject-2"><path d="M614.85,116.64c-3.4,9.84-17.39,58.32-26.73,61-15.23,4.43-26.83,3-39,3.31-6.85.17-17.48-32.76-11.28-32.93,9.88-.28,32.32,1.45,35.91,1.28s16.93-27.77,29.53-39.76C614.66,98.76,617.24,109.71,614.85,116.64Z" style="fill: rgb(255, 196, 192);"></path><path d="M553.09,180.1c-.55.21-8.47,3.22-13.26,4.09-3.57.65-13.91,2.24-15-1.63-.76-2.63,5.21-4.28,9.4-5.54,2.21-.67,5-2.62,4.57-4-.85-2.5-6.55-.67-10.35,1.05-7.35,3.31-17.34,9.62-21.22,5.66-1.46-1.49.65-3.72,3.62-5.82-4.7,2.32-9.65,4.1-11.34,2.51-1-.91-.91-2-.19-3.22a3.08,3.08,0,0,1-3.35-.88c-1.28-1.65-.36-3.79,1.45-5.9a1.74,1.74,0,0,1-1.22-1c-2.56-4.95,14-16.69,19.41-17.39,15.86-2.09,32.09.27,32.09.27C553.27,153.76,553.11,180.09,553.09,180.1Z" style="fill: rgb(255, 196, 192);"></path><path d="M531.8,163.5a26.36,26.36,0,0,0-10.73,2.92c-4.19,2.18-7.11,5-10.71,7.66-.1.07,0,.22.11.15,1.71-1.29,8.77-6.08,10.58-7.14a25.11,25.11,0,0,1,10.76-3.52S531.84,163.5,531.8,163.5Z" style="fill:#263238"></path><path d="M529.59,156.64a63.19,63.19,0,0,0-12.44,2.92c-4.35,1.69-7.93,4.79-11.45,7.76-2.11,1.79-4.19,3.62-6.22,5.5-.09.08,0,.23.11.15q5.36-4.62,11-8.91a33.24,33.24,0,0,1,11.67-5.78c2.42-.65,4.88-1.11,7.34-1.57C529.65,156.71,529.64,156.63,529.59,156.64Z" style="fill:#263238"></path><path d="M525.84,150.45c-4,.4-7.56.74-11.27,2.5-4.93,2.33-9.89,6.59-11.63,8.11-1.92,1.67-3.79,3.4-5.63,5.16-.07.08.05.21.13.14a131.11,131.11,0,0,1,13.28-10.7,26.11,26.11,0,0,1,7.2-3.69,46.28,46.28,0,0,1,7.92-1.49S525.86,150.45,525.84,150.45Z" style="fill:#263238"></path><path d="M575.05,143l24.52,29.7s14.19-39.16,17.07-56.49c3-18.06-3-23.45-18.29-4.64A379.11,379.11,0,0,0,575.05,143Z" style="fill:#633FBD"></path><path d="M598.23,114.65a1.87,1.87,0,0,1-.83-.29,1.62,1.62,0,0,1-.64-.83c-.19.23-.38.46-.55.69a1.91,1.91,0,0,0,.9.72,2,2,0,0,0,1.12.12c.35-.08.68-.12,1-.21A8.2,8.2,0,0,0,598.23,114.65Zm-5.77,46.57a2,2,0,0,1-.83-.27,1.56,1.56,0,0,1-.72-1.36,2.09,2.09,0,0,0-1.34-1.9,1.82,1.82,0,0,0-1.12-.08c-.35.08-.68.12-1,.2a7.53,7.53,0,0,0,1,.21,2,2,0,0,1,.85.25,1.58,1.58,0,0,1,.76,1.32,2.12,2.12,0,0,0,1.28,1.94,2,2,0,0,0,1.12.1,9.35,9.35,0,0,0,1-.2C593.14,161.34,592.81,161.3,592.46,161.22Zm23-50.32a2,2,0,0,0-.13,1.13c.08.33.13.66.21,1,.1-.35.14-.68.21-1a1.78,1.78,0,0,1,.28-.84,1.59,1.59,0,0,1,1.25-.73c0-.29,0-.57.05-.84A2.09,2.09,0,0,0,615.49,110.9ZM594.7,135.73a8.21,8.21,0,0,0-.21-1c-.08.33-.12.66-.21,1a2.12,2.12,0,0,1-.24.85,1.55,1.55,0,0,1-1.32.76,2.12,2.12,0,0,0-1.94,1.28,2.08,2.08,0,0,0-.11,1.12,9.4,9.4,0,0,0,.21,1,9.35,9.35,0,0,0,.2-1,2,2,0,0,1,.29-.83,1.55,1.55,0,0,1,1.37-.72,2.13,2.13,0,0,0,1.9-1.34A2.16,2.16,0,0,0,594.7,135.73Zm10.13-11.63a1.83,1.83,0,0,1-.79.39,1.52,1.52,0,0,1-1.46-.45,2.1,2.1,0,0,0-2.29-.39,2,2,0,0,0-.85.74c-.19.29-.41.56-.58.87.31-.19.58-.39.87-.58a1.69,1.69,0,0,1,.78-.41,1.54,1.54,0,0,1,1.49.37,2,2,0,0,0,3.14-.25c.19-.29.39-.56.56-.87C605.39,123.71,605.12,123.92,604.83,124.1Zm1.86,23.84a2.1,2.1,0,0,0-2.29-.39,2,2,0,0,0-.85.74c-.18.29-.41.56-.58.87.31-.19.58-.4.87-.58a1.69,1.69,0,0,1,.78-.41,1.54,1.54,0,0,1,1.49.37,2,2,0,0,0,1.49.63l.24-.75A1.48,1.48,0,0,1,606.69,147.94Zm-28.14-2.78a1.6,1.6,0,0,1-.78.39,1.52,1.52,0,0,1-.6,0l.57.69.23-.08a2.05,2.05,0,0,0,.89-.72c.19-.29.39-.56.56-.87C579.11,144.77,578.84,145,578.55,145.16Z" style="fill:#fff"></path><path d="M600.31,163.86c-.54-.81-1.2-1.55-1.8-2.31l-1.88-2.34c-1.26-1.58-2.55-3.14-3.85-4.7-2.59-3.1-5.17-6.22-7.82-9.28-.73-.84-1.46-1.68-2.21-2.5s-1.64-1.68-2.42-2.54c-.05-.05-.12,0-.08.08.62.78,1.17,1.63,1.79,2.42s1.27,1.61,1.93,2.41c1.28,1.56,2.58,3.12,3.88,4.66,2.58,3,5.15,6.09,7.79,9.08l2.22,2.49c.77.87,1.51,1.8,2.36,2.6A.06.06,0,0,0,600.31,163.86Z" style="fill:#263238"></path><path d="M616.64,116.2c-2.88,17.33-17.07,56.49-17.07,56.49L584.14,154l29.12-54.19C617.19,100.05,618.3,106.18,616.64,116.2Z" style="opacity:0.1"></path><path d="M664.77,195.89a70.51,70.51,0,0,1-82.68,2c5.11-26.46,17.7-83.27,24.49-92.12,1.87-2.43,8-3.11,13.27-2.46a24.12,24.12,0,0,1,4,.83l.13,0a9.78,9.78,0,0,1,3,1.46C637.9,114.32,656.42,168.7,664.77,195.89Z" style="fill:#633FBD"></path><path d="M659,195.89a2,2,0,0,1-.78.39,1.63,1.63,0,0,1-1.49-.45,2.06,2.06,0,0,0-2.27-.39,1.89,1.89,0,0,0-.85.74,10.11,10.11,0,0,0-.58.87c.31-.19.58-.39.87-.58a1.93,1.93,0,0,1,.79-.43,1.54,1.54,0,0,1,1.46.39,2.11,2.11,0,0,0,2.27.47,2,2,0,0,0,.87-.72c.19-.29.41-.56.58-.87C659.56,195.5,659.29,195.71,659,195.89Zm-43.15,10.68a1.9,1.9,0,0,1-.81.39,1.6,1.6,0,0,1-1.46-.45,2,2,0,0,0-2.3-.4,2.12,2.12,0,0,0-.84.75c-.19.27-.39.53-.58.84a8.13,8.13,0,0,0,.87-.57,2.73,2.73,0,0,1,.78-.42,1.6,1.6,0,0,1,1.49.4,2,2,0,0,0,3.14-.25c.18-.29.39-.56.55-.87C616.4,206.16,616.14,206.36,615.85,206.57Zm15.32-24.73a1.9,1.9,0,0,1-.81.39,1.6,1.6,0,0,1-1.46-.45,2,2,0,0,0-2.3-.4,2.12,2.12,0,0,0-.84.75c-.19.27-.39.53-.58.84a8.13,8.13,0,0,0,.87-.57,2.73,2.73,0,0,1,.78-.42,1.6,1.6,0,0,1,1.49.4,2,2,0,0,0,3.14-.25c.18-.29.39-.56.55-.87C631.72,181.43,631.46,181.63,631.17,181.84Zm-40.77,2.68a1.54,1.54,0,0,1-.79.39,1.58,1.58,0,0,1-1.48-.43,2,2,0,0,0-2.27-.42,2.25,2.25,0,0,0-.85.75q-.22.3-.42.6a1.16,1.16,0,0,1,0,.18,8.75,8.75,0,0,0,.75-.49,1.82,1.82,0,0,1,.78-.42,1.55,1.55,0,0,1,1.47.4,2.12,2.12,0,0,0,2.27.47,2,2,0,0,0,.87-.72c.18-.29.41-.56.58-.87C591,184.13,590.69,184.33,590.4,184.52ZM608.94,148a1.63,1.63,0,0,1-.79.39,1.52,1.52,0,0,1-1.46-.45,2.1,2.1,0,0,0-2.29-.39,2,2,0,0,0-.85.74c-.18.29-.41.56-.58.87.31-.19.58-.4.87-.58a1.69,1.69,0,0,1,.78-.41,1.54,1.54,0,0,1,1.49.37,2,2,0,0,0,3.14-.25c.18-.29.39-.56.56-.87C609.5,147.61,609.23,147.81,608.94,148Zm-4.11-23.9a1.83,1.83,0,0,1-.79.39,1.52,1.52,0,0,1-1.46-.45,2.1,2.1,0,0,0-2.29-.39,2,2,0,0,0-.85.74l-.23.33c0,.12-.07.25-.11.38l.63-.42a1.69,1.69,0,0,1,.78-.41,1.54,1.54,0,0,1,1.49.37,2,2,0,0,0,3.14-.25c.19-.29.39-.56.56-.87C605.39,123.71,605.12,123.92,604.83,124.1Zm31.48-.9a1.85,1.85,0,0,1-.78.39,1.53,1.53,0,0,1-1.47-.45,2.1,2.1,0,0,0-2.29-.39,2,2,0,0,0-.85.74c-.18.29-.41.56-.58.87.31-.19.58-.39.87-.58a1.68,1.68,0,0,1,.79-.41,1.53,1.53,0,0,1,1.48.37,2,2,0,0,0,3.14-.25c.19-.29.39-.56.56-.87C636.87,122.81,636.6,123,636.31,123.2Zm-41.08,79.42c-.08-.35-.12-.68-.21-1a8.2,8.2,0,0,0-.2,1,1.86,1.86,0,0,1-.27.85,1.5,1.5,0,0,1-1.16.75c.35.16.7.32,1.05.46a2.05,2.05,0,0,0,.71-.94A2.17,2.17,0,0,0,595.23,202.62Zm43.37-60.24c-.08-.33-.12-.66-.2-1a7.91,7.91,0,0,0-.21,1,1.94,1.94,0,0,1-.27.87,1.54,1.54,0,0,1-1.32.77,2,2,0,0,0-1.92,1.28,1.66,1.66,0,0,0-.1,1.11c.06.35.1.68.18,1a6.7,6.7,0,0,0,.21-1,2,2,0,0,1,.29-.83,1.54,1.54,0,0,1,1.36-.72,2.09,2.09,0,0,0,1.9-1.34A2.49,2.49,0,0,0,638.6,142.38Zm-30.2,25.11a8.2,8.2,0,0,0-.2-1c-.09.33-.13.66-.21,1a2,2,0,0,1-.25.85,1.53,1.53,0,0,1-1.32.76,2.14,2.14,0,0,0-1.94,1.28,2,2,0,0,0-.1,1.11,10,10,0,0,0,.2,1,8,8,0,0,0,.21-1,1.72,1.72,0,0,1,.29-.82,1.5,1.5,0,0,1,1.36-.72,2,2,0,0,0,2-2.46Zm11-59.48c-.06-.36-.11-.69-.19-1a8,8,0,0,0-.2,1,2.25,2.25,0,0,1-.27.84,1.53,1.53,0,0,1-1.32.77,2.08,2.08,0,0,0-1.92,1.28,2,2,0,0,0-.13,1.13c.08.33.13.66.21,1,.1-.35.14-.68.21-1a1.78,1.78,0,0,1,.28-.84,1.59,1.59,0,0,1,1.37-.73,2.08,2.08,0,0,0,1.9-1.34A2.12,2.12,0,0,0,619.39,108Zm31.48,51.57a2.43,2.43,0,0,1-.79.44,1.61,1.61,0,0,1-1.49-.4,2.09,2.09,0,0,0-2.25-.47,1.87,1.87,0,0,0-.88.72c-.19.29-.4.56-.58.87.31-.19.58-.39.87-.58a1.85,1.85,0,0,1,.78-.39,1.66,1.66,0,0,1,1.49.45,2.09,2.09,0,0,0,2.29.4,2.22,2.22,0,0,0,.85-.75c.18-.29.39-.56.55-.86C651.42,159.19,651.16,159.4,650.87,159.58ZM655,180.87a1.9,1.9,0,0,1-.83-.29,1.55,1.55,0,0,1-.72-1.37,2.11,2.11,0,0,0-1.34-1.9,2.24,2.24,0,0,0-1.14-.06c-.33.06-.66.11-1,.19a10,10,0,0,0,1,.2,2.29,2.29,0,0,1,.87.27,1.57,1.57,0,0,1,.76,1.32,2.07,2.07,0,0,0,1.26,1.92,2,2,0,0,0,1.14.13c.35-.08.68-.13,1-.21A8.2,8.2,0,0,0,655,180.87Zm-62.58-19.65a2,2,0,0,1-.83-.27,1.56,1.56,0,0,1-.72-1.36,2.17,2.17,0,0,0-.38-1.16c-.14.57-.27,1.13-.4,1.7a2.1,2.1,0,0,0,1.21,1.4,2,2,0,0,0,1.12.1,9.35,9.35,0,0,0,1-.2C593.14,161.34,592.81,161.3,592.46,161.22Zm34.5,2.06a2.14,2.14,0,0,1-.83-.27,1.57,1.57,0,0,1-.72-1.36,2.09,2.09,0,0,0-1.34-1.9,1.82,1.82,0,0,0-1.12-.08c-.35.08-.68.12-1,.2a7.53,7.53,0,0,0,1,.21,1.93,1.93,0,0,1,.85.25,1.56,1.56,0,0,1,.76,1.32,2.12,2.12,0,0,0,1.28,1.94,2,2,0,0,0,1.12.1,7.53,7.53,0,0,0,1-.21C627.64,163.4,627.31,163.36,627,163.28Zm-16.74,27.58a2.3,2.3,0,0,1-.85-.29,1.6,1.6,0,0,1-.72-1.37,2.05,2.05,0,0,0-1.34-1.89,2.08,2.08,0,0,0-1.12-.09c-.35.09-.68.13-1,.21.33.1.66.14,1,.21a1.85,1.85,0,0,1,.85.26,1.59,1.59,0,0,1,.78,1.33,2,2,0,0,0,2.4,2,7.91,7.91,0,0,0,1-.21C610.88,191,610.55,190.92,610.22,190.86Zm25,10.55a2,2,0,0,1-.85-.29,1.58,1.58,0,0,1-.72-1.37,2.07,2.07,0,0,0-1.35-1.9,2.12,2.12,0,0,0-1.11-.06c-.33.06-.68.11-1,.19a9,9,0,0,0,1,.2,2.3,2.3,0,0,1,.85.27,1.59,1.59,0,0,1,.78,1.32,2,2,0,0,0,1.26,1.92,2,2,0,0,0,1.14.13c.33-.08.66-.13,1-.21A10,10,0,0,0,635.18,201.41Zm-15-65.21a2,2,0,0,1-.83-.29,1.55,1.55,0,0,1-.72-1.37,2.13,2.13,0,0,0-1.34-1.9,2.17,2.17,0,0,0-1.12-.06,9.4,9.4,0,0,0-1,.21c.35.08.68.12,1,.19a2.13,2.13,0,0,1,.85.26,1.6,1.6,0,0,1,.76,1.33,2.09,2.09,0,0,0,1.28,1.92,2,2,0,0,0,1.12.12c.35-.08.68-.12,1-.21A8.2,8.2,0,0,0,620.21,136.2Z" style="fill:#fff"></path><path d="M639.69,116.76c19.28,31.28,36.83,66,30.41,74.89-5.18,7.16-52.15,26.34-67.81,27.54-5,.38-17.31-36.24-9.08-39.2,2.34-.84,40.53-8.14,40.76-9,.74-2.84-4.39-21.93-9.12-43.69C618.76,99.28,631.54,103.52,639.69,116.76Z" style="fill: rgb(255, 196, 192);"></path><path d="M574.59,186.46c2.33-.84,3.71-2.68-.47-4.07s-21.89-3.34-20.69-9.46,25.78-1.87,32.94-.17a28.66,28.66,0,0,1,17.37,12.31C592.32,185.75,583.58,186.29,574.59,186.46Z" style="fill: rgb(255, 196, 192);"></path><path d="M561.34,169.72a60.27,60.27,0,0,1,7.11-.14c2.38.07,4.74.29,7.1.59a56,56,0,0,1,13.78,3.47c-1.17-.22-2.3-.55-3.47-.74s-2.31-.48-3.47-.68c-2.32-.38-4.64-.78-7-1.06s-4.67-.56-7-.81c-1.17-.12-2.34-.23-3.52-.32S562.53,169.83,561.34,169.72Z" style="fill:#263238"></path><rect x="563.64" y="142.56" width="3.64" height="81.33" transform="translate(380.86 748.24) rotate(-89.86)" style="fill:#37474f"></rect><polygon points="524.8 181.3 524.79 184.95 580.08 185.08 577.3 181.43 524.8 181.3" style="fill:#263238"></polygon><polygon points="573.79 185.07 494.52 184.87 488.05 131.02 567.32 131.22 573.79 185.07" style="fill:#37474f"></polygon><path d="M535.74,158.06a4.72,4.72,0,0,1-4.75,4.81,4.94,4.94,0,0,1-4.9-4.84,4.73,4.73,0,0,1,4.76-4.81A4.93,4.93,0,0,1,535.74,158.06Z" style="fill:#fff"></path><path d="M602.19,219.19c-14,.79-34.06-1.27-47.11-10.3a7.88,7.88,0,0,1-3.15-4.07c-5.92-3.94-5.84-7.92-5.84-7.92-4.39-5.37-3.75-9.42-3.75-9.42s-6.9-4.71-4.75-9.35c2.4-5.22,11.62,2.41,19.26,3.5,17.5,2.5,43.43,3.71,48.55,3.93Z" style="fill: rgb(255, 196, 192);"></path><path d="M573.33,197.11a114.27,114.27,0,0,1-15.2-3.06c-5.48-1.68-10.47-4.21-15.62-6.67a.14.14,0,0,0-.14.24c8.62,5.92,20.5,9.46,30.93,9.72C573.55,197.35,573.59,197.15,573.33,197.11Z" style="fill:#263238"></path><path d="M573.36,207.89c-5-1.09-13.65-3.07-27.2-11.17,0,0-.11,0-.06.07a53.92,53.92,0,0,0,27.21,11.34C573.62,208.17,573.69,208,573.36,207.89Z" style="fill:#263238"></path><path d="M573.26,213.69c-8.35-2.18-13.34-4.61-21.3-8.92,0,0-.1,0-.05.08,8.53,5.84,12.29,7,21.32,9.14C573.54,214.06,573.59,213.77,573.26,213.69Z" style="fill:#263238"></path><path d="M630.75,162.12l38.5,1s-20.21-36.41-31.39-50C626.21,99,618.21,100,622.35,123.9A381.66,381.66,0,0,0,630.75,162.12Z" style="fill:#633FBD"></path><path d="M659.45,146.1c-.17,0-.34,0-.51-.09a2.13,2.13,0,0,1-.85-.28,1.6,1.6,0,0,1-.72-1.37,2.08,2.08,0,0,0-1.34-1.9,2.17,2.17,0,0,0-1.12-.08c-.35.08-.68.12-1,.21a8.2,8.2,0,0,0,1,.2,1.82,1.82,0,0,1,.85.27,1.57,1.57,0,0,1,.79,1.32,2,2,0,0,0,1.26,1.92,1.93,1.93,0,0,0,1.13.11l.62-.12a2.74,2.74,0,0,0,.39-.09Zm-8.58,13.48a2.43,2.43,0,0,1-.79.44,1.61,1.61,0,0,1-1.49-.4,2.09,2.09,0,0,0-2.25-.47,1.87,1.87,0,0,0-.88.72c-.19.29-.4.56-.58.87.31-.19.58-.39.87-.58a1.85,1.85,0,0,1,.78-.39,1.66,1.66,0,0,1,1.49.45,2.09,2.09,0,0,0,2.29.4,2.22,2.22,0,0,0,.85-.75c.18-.29.39-.56.55-.86C651.42,159.19,651.16,159.4,650.87,159.58Zm-2.38-31.33a1.81,1.81,0,0,0-.41.62A2.17,2.17,0,0,0,648,130a9.35,9.35,0,0,0,.2,1,7.53,7.53,0,0,0,.21-1,1.75,1.75,0,0,1,.29-.83,1.49,1.49,0,0,1,.23-.27Zm-9.89,14.13c-.08-.33-.12-.66-.2-1a7.91,7.91,0,0,0-.21,1,1.94,1.94,0,0,1-.27.87,1.54,1.54,0,0,1-1.32.77,2,2,0,0,0-1.92,1.28,1.66,1.66,0,0,0-.1,1.11c.06.35.1.68.18,1a6.7,6.7,0,0,0,.21-1,2,2,0,0,1,.29-.83,1.54,1.54,0,0,1,1.36-.72,2.09,2.09,0,0,0,1.9-1.34A2.49,2.49,0,0,0,638.6,142.38Zm-2.29-19.18a1.85,1.85,0,0,1-.78.39,1.53,1.53,0,0,1-1.47-.45,2.1,2.1,0,0,0-2.29-.39,2,2,0,0,0-.85.74c-.18.29-.41.56-.58.87.31-.19.58-.39.87-.58a1.68,1.68,0,0,1,.79-.41,1.53,1.53,0,0,1,1.48.37,2,2,0,0,0,3.14-.25c.19-.29.39-.56.56-.87C636.87,122.81,636.6,123,636.31,123.2Z" style="fill:#fff"></path><path d="M663.08,156.78c-1-.13-2-.12-2.93-.16l-3-.13c-2-.08-4-.14-6.08-.18-4-.08-8.09-.18-12.13-.19-1.12,0-2.23,0-3.34,0s-2.34.13-3.51.16c-.07,0-.06.1,0,.11,1,.05,2,.18,3,.24s2.06.1,3.09.13q3,.09,6.07.13c4,.05,8,.12,12,.09l3.34,0c1.16,0,2.35,0,3.51-.07C663.13,156.88,663.14,156.79,663.08,156.78Z" style="fill:#263238"></path><path d="M656.48,142.46c-1.37-2.33-2.67-4.69-4-7-1.53-2.66-3-5.37-4.44-8,0-.07.07-.13.12-.07,1.75,2.83,7.68,12.23,8.64,13.83,2.81,4.67,5.62,9.34,8.38,14,1.55,2.63,3.28,5.69,4.81,8.33.11.19-3,0-4.66-.2-.08,0-.19-.28-.09-.28,1.54,0,3.61-.13,3.82-.11-2.83-4.42-5.59-8.88-8.32-13.37Q658.58,146,656.48,142.46Z" style="fill:#263238"></path><path d="M626,144.14a11.31,11.31,0,0,1-1.6-4.15s0,0,0,0a24.27,24.27,0,0,0,1.47,3.71c-.11-.54-.21-1.07-.32-1.61-.38-1.93-.77-3.86-1.06-5.81,0,0,.05,0,.05,0,.9,3.32,1.64,6.68,2.46,10s1.63,6.78,2.44,10.17c.44,1.85.89,3.7,1.29,5.56.62.06,1.11.06,1.66.12a.14.14,0,0,1,0,.28,11.86,11.86,0,0,1-2.09-.08C628.57,156.36,627.25,150.25,626,144.14Z" style="fill:#263238"></path><path d="M609.47,119.34c4.83.77,12.42-7.09,15.19-13.2.19-.42-.74-4.62-1.64-9.78-.53-3.13-1-6.62-1.29-9.85L601.86,93a51.53,51.53,0,0,1,2.89,12.24,7.25,7.25,0,0,1,0,1.33c0,.06,0,.14,0,.22C604.48,109.29,604.8,118.6,609.47,119.34Z" style="fill: rgb(255, 196, 192);"></path><path d="M620.33,87c-.27,4.32-2,18.6-13.54,19.72a11.57,11.57,0,0,1-2.1,0,2,2,0,0,0,0-.22,7.34,7.34,0,0,0,0-1.34A51.75,51.75,0,0,0,601.87,93Z" style="fill:#263238"></path><path d="M618.59,60.21c3.81,6.49,4.92,27.58,1,33.28-5.66,8.25-17.32,11.69-24.94,4.34-7.39-7.13-8.36-34.65-3.77-40.07C597.65,49.78,613,50.62,618.59,60.21Z" style="fill: rgb(255, 196, 192);"></path><path d="M602.33,77.52c0-.06.12.06.12.12,0,1.42.32,3,1.63,3.44a0,0,0,0,1,0,.08C602.49,81,602.14,78.87,602.33,77.52Z" style="fill:#263238"></path><path d="M603.51,76c2.28-.31,2.72,4.27.61,4.55S601.61,76.22,603.51,76Z" style="fill:#263238"></path><path d="M593.9,78c0-.05-.11.08-.1.14.18,1.41.15,3.06-1.08,3.65,0,0,0,.09,0,.08C594.28,81.54,594.3,79.35,593.9,78Z" style="fill:#263238"></path><path d="M592.49,76.69c-2.3,0-2,4.63.09,4.59S594.41,76.65,592.49,76.69Z" style="fill:#263238"></path><path d="M605.11,73.69a16.84,16.84,0,0,1-1.83-.45,3.05,3.05,0,0,1-1.78-.81,1,1,0,0,1,0-1.19,2.41,2.41,0,0,1,2.4-.48,3.56,3.56,0,0,1,2.17,1.32A1,1,0,0,1,605.11,73.69Z" style="fill:#263238"></path><path d="M590.5,74.56a18.76,18.76,0,0,0,1.77-.65,3.08,3.08,0,0,0,1.68-1,1,1,0,0,0-.17-1.17,2.43,2.43,0,0,0-2.43-.22,3.51,3.51,0,0,0-2,1.56A1,1,0,0,0,590.5,74.56Z" style="fill:#263238"></path><path d="M604.68,90.33c-.31.37-.61.86-1.12,1a3.76,3.76,0,0,1-1.55-.21.05.05,0,0,0-.06.08,1.94,1.94,0,0,0,1.88.6,1.52,1.52,0,0,0,1-1.36A.08.08,0,0,0,604.68,90.33Z" style="fill:#263238"></path><path d="M602.77,86.24a4.86,4.86,0,0,1-3,2.46,6.21,6.21,0,0,1-1.72.24,1.93,1.93,0,0,1-.34,0l-.31,0a.36.36,0,0,1-.32-.29h0a.66.66,0,0,1,0-.14v-.14c-.14-1.09-.19-2.76-.19-2.76-.38.24-2.32,1.35-2.35.78-.17-4.74-.37-10,.46-14.78a.13.13,0,0,1,.26,0c.35,4.55-.1,9.13.18,13.71a8.23,8.23,0,0,1,2.2-.91c.16,0,0,3.22.15,3.71l0,0c1.85.06,3.18-.63,4.84-2C602.73,86,602.85,86.12,602.77,86.24Z" style="fill:#263238"></path><path d="M594.11,63a8.05,8.05,0,0,0,7.49,2.19,8.19,8.19,0,0,0,5.92-5.31c0-.08.15-.05.12,0a8.07,8.07,0,0,1-5.89,5.91A8.26,8.26,0,0,1,594,63.1C593.89,63,594,62.87,594.11,63Z" style="fill:#263238"></path><path d="M600.49,45.18a8.63,8.63,0,0,1,9.22,2.63,11.77,11.77,0,0,1,2.52,5.35.06.06,0,0,1-.12,0A10.84,10.84,0,0,0,606,46a7.23,7.23,0,0,0-10,6.35.15.15,0,0,1-.29,0A7.49,7.49,0,0,1,600.49,45.18Z" style="fill:#263238"></path><path d="M576.25,55.09A9.64,9.64,0,0,1,580,49.61c2.56-1.86,5.62-1.83,8.65-1.74a.07.07,0,0,1,0,.13c-2.59-.07-5.21,0-7.48,1.39a9.56,9.56,0,0,0-4.06,4.93,9.28,9.28,0,0,0,4.65,11.21,9.42,9.42,0,0,0,7.47.22c.09,0,.17.1.07.14a9.46,9.46,0,0,1-13-10.8Z" style="fill:#263238"></path><path d="M619.56,61.22s-.95-6.39-2.79-8.21-5.57-1.95-5.57-1.95-2.64-5.25-7.86-5.15c-4.69.1-7.48,4.49-7.48,4.49s-7-5.83-14.06-1.53C575.11,53,577,63.52,584,66.32c5,2,11.15-2.77,11.15-2.77.63,0,7.33,3.41,11.74-2.68,0,0,4.66,3,7,.41C613.89,61.28,617.38,62.57,619.56,61.22Z" style="fill:#263238"></path><path d="M622,78.09c-1.31-.78-4.13-6-5.4-8.13-1.17-2-2-10.25-2.35-14.39a14.67,14.67,0,0,1,4.32,4.64C620.59,63.6,621.84,71,622,78.09Z" style="fill:#263238;opacity:0.2"></path><path d="M618.2,77.71s3.16-7.56,6.5-6.57,1.95,11.26-1.27,13.32a3.64,3.64,0,0,1-5.18-.88Z" style="fill: rgb(255, 196, 192);"></path><path d="M624.23,74.07a.05.05,0,0,1,0,.09c-2.24,1.53-3,4.08-3.43,6.64a2,2,0,0,1,2.82-1.18.08.08,0,0,1,0,.15,2.22,2.22,0,0,0-2.24,1.29,10.33,10.33,0,0,0-.73,2.2c-.07.24-.49.21-.46-.06,0,0,0,0,0-.06C619.46,80,620.94,75.12,624.23,74.07Z" style="fill:#263238"></path><path d="M604.68,106.3l6.6,11.15,12.43-17.18,4.89,4.17s-10.78,25.94-11,24.88l-6.41-9.45-6,8.15-2.11-17.89Z" style="fill:#37474f"></path><path d="M603.65,119.24c-.25-3-.59-5.95-.7-8.92,0-.1.15-.17.19-.06,1,2.75,1.92,14.09,2.34,16.78a.05.05,0,0,0,0,0c.25-.35,5.58-7.22,5.66-7.13,1.3,1.45,6,8.33,6.34,9,1.7-4.12,8.34-19.15,10.49-23.13a.1.1,0,0,1,.19.08c-1.41,4.28-10.14,24.5-10.32,24.48a118.2,118.2,0,0,1-6.73-10c-.85,1.45-6.13,9.09-6.21,8.66A93.07,93.07,0,0,1,603.65,119.24Z" style="fill:#263238"></path></g><g id="freepik--character-1--inject-2"><path d="M114.68,158.77c7.07,7.64,18.63,10,28.61,9.94,10.17,0,21.49-1.78,30.33-7.12A24.66,24.66,0,0,0,183,152c2.22-4.36,2.22-8.78-.76-12.52-2.4-3-7.31-5-7.52-7.84s2-5.35,2.44-8.18c.78-4.84-2-8.23-5.54-11.09-8.33-6.79-6.88-16.61-12.32-25.4-3.09-5-11.48-14-25-8.7-5.15,2-8.41,7.1-10.21,12.24-2.1,6.06.23,13.66-2.46,19.52-2.29,5-6.1,6-8.26,11.27-.94,2.26-1.28,4.85,1.39,9.87,1,1.81,2.06,4.6,1.45,6.88-.86,3.16-4.38,4.82-5.35,8.12C109.57,150.66,111.57,155.4,114.68,158.77Z" style="fill:#263238"></path><path d="M180,153.38c4.69-1.12,6.26-7.86,3-11-2.06-2-5-2.8-7.05-4.79-3.38-3.28-.81-6.64.65-10.2,3.15-7.72-2.23-12.4-7.86-16.63-4.28-3.22-5.38-7.17-6-12.3,0-.08.13-.1.14,0,.64,3.76,1.43,7.45,4.27,10.24,2.3,2.26,5.26,3.7,7.51,6.06,3.76,4,4.51,8.48,2.41,13.45-.61,1.42-1.83,3.08-2,4.6-.41,3.6,2.36,5.24,5,6.8,2,1.21,4.26,2.54,5.16,4.86,1.35,3.5-1.48,8.58-5.13,9.23C179.94,153.7,179.85,153.42,180,153.38Z" style="fill:#263238"></path><path d="M177.72,157.18c2.78-2,5.82-3.83,7.31-7.06,2.2-4.78-1.21-8-4.4-11.07-1.38-1.31-2.53-2.63-2.61-4.6-.12-3,1.84-5.6,2-8.55.33-7.05-6.82-10.78-10.63-15.66s-5.5-11-7.22-17a.1.1,0,0,1,.2-.06c2.25,7.61,5,14.71,10.9,20.27,4.08,3.88,8.44,8.09,7.12,14.24-.32,1.51-1.08,2.92-1.37,4.42-.58,3,.35,4.84,2.42,6.8s4.28,3.78,4.84,6.62c1.09,5.51-4.13,9.6-8.28,12A.25.25,0,0,1,177.72,157.18Z" style="fill:#263238"></path><path d="M109.5,144.47c2.08-3.56,5.69-5.54,4.31-10.28-1-3.26-3-5.77-2.58-9.34.31-3,2-5.36,4-7.46,2.57-2.66,5.47-4.88,7.22-8.21,1.92-3.65,2.58-7.79,3.27-11.78,0-.08.15-.07.14,0-.63,5.42-1.49,11-5.15,15.3-1.91,2.25-4.31,4-6.2,6.3-3.4,4.09-3,8.22-1,12.81.92,2.1,1.75,4.22,1,6.51s-2.76,3.83-4.06,5.8c-5.52,8.36,4.83,17.51,12.79,18.27.36,0,.37.59,0,.57-6-.4-12.62-5.24-14.42-11A9.34,9.34,0,0,1,109.5,144.47Z" style="fill:#263238"></path><path d="M110.12,148.65c-.24-3.52,1.76-5.65,3.2-8.55,2.27-4.56-.84-8.59-1.57-13.14a11.37,11.37,0,0,1,2.28-8.47c2.36-3.36,5.53-5.89,7.37-9.66a23,23,0,0,0,2-13c0-.09.11-.09.12,0a21.69,21.69,0,0,1-4.15,17.1c-2.38,3.07-5.73,5.7-6.87,9.65-1.2,4.18,1.15,7.7,2,11.68a9,9,0,0,1-1.1,6.93c-.92,1.6-2.1,3.08-2.53,4.95a10.87,10.87,0,0,0,1.39,7.46c3.8,7.1,11.92,11.06,19.37,11.61.26,0,.28.44,0,.42A25.65,25.65,0,0,1,114,157,14.78,14.78,0,0,1,110.12,148.65Z" style="fill:#263238"></path><path d="M138.83,143.29c5.55,22.56,19,57.61,30.86,57.42,10.84-.17,35-19.39,45.15-25.68s-12.59-31.12-18.4-27.1c-9,6.22-22.46,17.33-24.74,16.6-2.83-.91-6.44-7.89-22.61-28.45C142.47,127.66,136.47,133.69,138.83,143.29Z" style="fill: rgb(247, 169, 160);"></path><path d="M207.33,138.36c4.78-1.69,10.12-4,15.43-3.9s9.71,7.1,9.71,9.11-2,14.51-7.31,14.51-2.1-9.61-2.3-10.71-.4-2.51-1.41-2.41-18.52,8.42-18.52,8.42Z" style="fill: rgb(247, 169, 160);"></path><path d="M207.67,139.09c.3,0,14.52-5.6,19.82-5.5s9.71,7.1,9.71,9.11-2,14.51-7.3,14.51-2.11-9.61-2.31-10.71-.4-2.51-1.4-2.4-18.52,8.41-18.52,8.41Z" style="fill: rgb(247, 169, 160);"></path><path d="M228.1,156.54a6.28,6.28,0,0,1-.89-3.13,11,11,0,0,1,.2-3.39,19.78,19.78,0,0,0,.64-2.92,5.83,5.83,0,0,0-.74-2.8c-.41-.75-1.19-.49-1.86-.26a24.91,24.91,0,0,0-2.88,1.31c-1,.5-2,1-3,1.54a28,28,0,0,0-3.08,1.7.08.08,0,0,0,.07.14,27,27,0,0,0,2.69-1.21c1-.47,2-.94,3-1.39s1.87-.9,2.83-1.3a3,3,0,0,1,1.4-.42c.4.09.6,1.09.69,1.41a4.94,4.94,0,0,1-.18,2.87,15.14,15.14,0,0,0-.55,2.9,7.83,7.83,0,0,0,.22,2.77,10.62,10.62,0,0,0,1.27,2.28C228,156.75,228.17,156.64,228.1,156.54Z" style="fill:#263238"></path><path d="M190.84,153s14.71-13.4,17.77-16.06c6.14-5.34,32-15.9,35.6-16.29s4.91,7-12.65,14.69c-9.25,4-10.89,9.34-10.72,12.28s3,8.41,7.92,8.27,8.14-7.34,12.68-8.14,1.54,7.52-1.66,12.32a30.23,30.23,0,0,1-13.29,10.37c-4.27,1.6-17.49,7.3-17.49,7.3Z" style="fill: rgb(247, 169, 160);"></path><path d="M234.89,152.44c-1.86,1.44-4,3.31-6.41,3.4s-4.18-1.55-5.35-3.61a9.36,9.36,0,0,1-1.3-6.83,11.51,11.51,0,0,1,3.39-5.54,27.56,27.56,0,0,1,6.69-4.45c.1-.06,0-.21-.1-.16-2.28,1-9.34,3.91-10.76,10.15a9.57,9.57,0,0,0,1.38,7c1.09,2,2.69,3.86,5.08,4.06,2.92.23,5.43-2.14,7.53-3.91C235.13,152.43,235,152.36,234.89,152.44Z" style="fill:#263238"></path><path d="M190.84,151.15l22,34.14s-34.9,19.55-44.77,16.4-24.78-31.46-30.92-56.29,9.1-15.32,15-7.65,18.75,25.42,19.45,25.19S190.84,151.15,190.84,151.15Z" style="fill:#455a64"></path><path d="M202.82,190.53c-2.17,1.1-4.55,2.25-7,3.4l-19.07-34c2-1.22,4.37-2.68,6.57-4C189.28,166.5,196.58,179.43,202.82,190.53Z" style="fill:#ebebeb"></path><path d="M193.06,195.17c-.76.33-1.53.67-2.3,1L172,162.75c.43-.24,1.16-.67,2.1-1.24C180,172,187,184.43,193.06,195.17Z" style="fill:#ebebeb"></path><path d="M188.24,197.21c-7.94,3.24-15.75,5.6-19.82,4.58l-.35-.1c-9.87-3.16-24.78-31.45-30.93-56.29a38.7,38.7,0,0,1-1.42-10.2c0-.13,0-.24,0-.37a5.87,5.87,0,0,1,0-.59,2.24,2.24,0,0,1,0-.24,4.51,4.51,0,0,1,.07-.53Z" style="fill:#263238"></path><path d="M200.56,181.93c-.7-1.21-1.4-2.42-2.11-3.62-1.42-2.41-9.94-16.71-13.3-21.05-.09-.12-.27,0-.21.14,2.35,5,11.18,19,12.65,21.35.75,1.18,1.5,2.36,2.27,3.54s1.68,2.26,2.44,3.45c.08.11.27,0,.2-.1C201.8,184.43,201.25,183.14,200.56,181.93Z" style="fill:#263238"></path><path d="M162.21,183.68l3.67,25.16a70.56,70.56,0,0,1-73.73,1.32c3.7-19.21,12.62-56.38,29-75.28,2.72-3.14,12-11.66,23.66-1.93,5.7,4.74,19.36,24.84,21.1,33.17S162.21,183.68,162.21,183.68Z" style="fill:#455a64"></path><path d="M151.37,181.74a46.16,46.16,0,0,0-11.89,2c-3.88,1.1-12.46,4.5-14.61,5.34-.06,0,0,.1,0,.08a73.39,73.39,0,0,0,8.26-2.48c3.81-1.3,7.65-2.47,11.54-3.48a54.22,54.22,0,0,1,6.69-1.21A.12.12,0,1,0,151.37,181.74Z" style="fill:#263238"></path><path d="M158.46,183.79a37,37,0,0,0-12.49,1.1c-.05,0,0,.1,0,.09,2.07-.24,4.13-.49,6.21-.66s4.18-.28,6.27-.42A.06.06,0,1,0,158.46,183.79Z" style="fill:#263238"></path><path d="M162.77,157.55a29.91,29.91,0,0,0-2.3-5.91s-.06,0,0,0a42.53,42.53,0,0,1,1.94,5.15,71.45,71.45,0,0,0-4.8-7.36,0,0,0,0,0-.06,0c4.89,8.12,9.77,17.53,7.44,27.28a22,22,0,0,1-1.16,3.55,16.86,16.86,0,0,1-1.84,3.46c-.06.08.25.41.32.33a18.32,18.32,0,0,0,1.88-2.78,16.47,16.47,0,0,0,1.43-3.14,20.49,20.49,0,0,0,1-6.9A30.63,30.63,0,0,0,162.77,157.55Z" style="fill:#263238"></path><path d="M118,153.94c3.91,23,23.22,66,35.8,70.07,14.57,4.69,65.12-11.47,75-18.74,3.95-2.89-17.1-28.36-22-26.55-20.59,7.57-38.83,11.46-41.48,9.66-4.08-2.77-20.68-26.56-31.48-41.32C120.31,128.51,116.24,143.62,118,153.94Z" style="fill: rgb(247, 169, 160);"></path><path d="M227.54,206c2.25-.8,17.73-12,22.3-17.31a68,68,0,0,0,11.9-18.46c4.6-10.7,6.76-18.53,5.65-22-1.28-4.08-1.65-4.74-12.36,13-6.05,10.05-11.83,11.18-16.84,11.08a77.13,77.13,0,0,0-35.57,8S218.89,209.05,227.54,206Z" style="fill: rgb(247, 169, 160);"></path><path d="M275.07,134.86l-26.74,33.75a3.19,3.19,0,0,1-3.23,1l-18.64-6.2a1.36,1.36,0,0,1-.56-2.31l26.74-33.75a3.19,3.19,0,0,1,3.23-1.06l18.65,6.2A1.36,1.36,0,0,1,275.07,134.86Z" style="fill:#37474f"></path><path d="M272.85,132l-18.65-6.2a3.19,3.19,0,0,0-3.23,1.06l-26.74,33.74a1.37,1.37,0,0,0,.55,2.32l18.65,6.2a3.19,3.19,0,0,0,3.23-1.06L273.4,134.3A1.36,1.36,0,0,0,272.85,132ZM246.3,166.61a3,3,0,0,1-3,1l-16.68-5.55c-.94-.31-1.12-1.28-.42-2.17l24.9-31.42c1.43-1.81,2.26-1.64,3.19-1.33l3.35,1.11c.19.06.2.31,0,.55l-.08.11c-.44.56-.09.68.34.82l7.72,2.57a.9.9,0,0,0,1.23-.3l.09-.11a.73.73,0,0,1,.7-.31l3.34,1.11c.93.31,1.5.8.18,2.46Z" style="fill:#263238"></path><path d="M263.41,130.7l-2.11-.7c-.07,0-.09-.09,0-.16h0a.24.24,0,0,1,.23-.07l2.1.7a.09.09,0,0,1,0,.16h0A.19.19,0,0,1,263.41,130.7Z" style="fill:#fff"></path><line x1="227.82" y1="157.94" x2="227.75" y2="157.92" style="fill:none"></line><path d="M271.2,135.19l-24.9,31.42a3,3,0,0,1-3,1l-16.68-5.55c-.94-.31-1.12-1.28-.42-2.17l24.9-31.42c1.43-1.81,2.26-1.64,3.2-1.33l3.34,1.11c.19.06.2.31,0,.55l-.09.11c-.44.56-.09.68.34.82l7.73,2.57a.9.9,0,0,0,1.23-.3l.08-.11a.73.73,0,0,1,.7-.31l3.34,1.11C272,133,272.52,133.53,271.2,135.19Z" style="fill:#fff"></path><path d="M271.2,135.19l-1.85,2.34-20.07-6.67,1.86-2.35c1.43-1.81,2.26-1.64,3.19-1.33l3.35,1.11c.19.06.2.31,0,.55l-.09.11c-.44.56-.09.68.34.82l7.72,2.57a.91.91,0,0,0,1.24-.3l.08-.11a.73.73,0,0,1,.7-.31l3.34,1.11C272,133,272.52,133.53,271.2,135.19Z" style="fill:#633FBD"></path><polygon points="252.22 130.39 252.01 129.7 252.99 129.41 253.02 129.53 252.21 129.77 252.38 130.33 252.22 130.39" style="fill:#fff"></polygon><path d="M269.36,135.22a.19.19,0,0,1-.2.06c-.06,0-.08-.08,0-.14a.19.19,0,0,1,.2-.06C269.39,135.1,269.41,135.16,269.36,135.22Z" style="fill:#fff"></path><path d="M269.07,135.58a.18.18,0,0,1-.19.07.08.08,0,0,1,0-.14.2.2,0,0,1,.2-.07A.08.08,0,0,1,269.07,135.58Z" style="fill:#fff"></path><path d="M268.79,136a.22.22,0,0,1-.2.06c-.07,0-.08-.08,0-.14a.2.2,0,0,1,.2-.06A.09.09,0,0,1,268.79,136Z" style="fill:#fff"></path><g id="freepik--u5zjqx--inject-2"><path d="M256.54,128.8l-.05,0h0a.31.31,0,0,0-.22-.22.69.69,0,0,0-.4,0v-.06h0l.07,0,.13,0h.23l.05,0h0l.1.07a.12.12,0,0,1,.05.05.3.3,0,0,1,0,.08v0Z" style="fill:#fff"></path><path d="M255.86,128.75v-.06a.69.69,0,0,1,.28,0,.3.3,0,0,1,.24.2l-.09,0a.22.22,0,0,0-.15-.15A.42.42,0,0,0,255.86,128.75Z" style="fill:#fff"></path><path d="M256.2,128.91l-.09,0a.11.11,0,0,0-.08-.07.19.19,0,0,0-.13,0l0-.06C256,128.76,256.17,128.8,256.2,128.91Z" style="fill:#fff"></path><path d="M256,129s-.06,0-.08,0a0,0,0,0,1,0-.06.08.08,0,0,1,.08,0S256,128.94,256,129Z" style="fill:#fff"></path></g><path d="M253.32,127.84a.26.26,0,0,1,.23-.07.1.1,0,0,1,0,.16.2.2,0,0,1-.23.07C253.29,128,253.27,127.91,253.32,127.84Z" style="fill:#fff"></path><path d="M253.74,128a.22.22,0,0,1,.23-.07.1.1,0,0,1,0,.16.22.22,0,0,1-.23.07C253.71,128.12,253.69,128.05,253.74,128Z" style="fill:#fff"></path><path d="M254.16,128.12a.22.22,0,0,1,.23-.07.1.1,0,0,1,0,.16.22.22,0,0,1-.23.07C254.13,128.26,254.11,128.19,254.16,128.12Z" style="fill:#fff"></path><path d="M254.58,128.26a.22.22,0,0,1,.23-.07c.07,0,.09.09,0,.16a.23.23,0,0,1-.23.07A.1.1,0,0,1,254.58,128.26Z" style="fill:#fff"></path><path d="M255,128.4a.21.21,0,0,1,.22-.07c.08,0,.1.09.05.16a.23.23,0,0,1-.23.07A.1.1,0,0,1,255,128.4Z" style="fill:#fff"></path><polygon points="270.45 134.09 268.92 133.58 269.56 132.78 271.09 133.28 270.45 134.09" style="fill:#fff"></polygon><polygon points="270.37 133.37 269.67 133.14 269.44 133.43 270.14 133.66 270.37 133.37" style="fill:#fff"></polygon><polygon points="270.55 133.76 270.45 133.73 270.64 133.5 270.74 133.53 270.55 133.76" style="fill:#fff"></polygon><polygon points="229.54 160.63 229.38 160.58 228.9 161.2 228.61 161.1 228.86 160.79 228.35 160.62 228.11 160.94 227.82 160.84 228.31 160.22 228.16 160.17 229.34 159.78 229.54 160.63" style="fill:#ebebeb"></polygon><polygon points="245.22 165.32 243.55 164.77 243.72 164.56 245.38 165.11 245.22 165.32" style="fill:#ebebeb"></polygon><polygon points="244.81 165.84 243.14 165.28 243.31 165.07 244.97 165.63 244.81 165.84" style="fill:#ebebeb"></polygon><polygon points="244.4 166.35 242.74 165.8 242.9 165.59 244.56 166.14 244.4 166.35" style="fill:#ebebeb"></polygon><polygon points="237.06 163.02 236.24 163.31 236.12 162.71 236.26 162.67 236.36 163.16 237.03 162.93 237.06 163.02" style="fill:#ebebeb"></polygon><path d="M236.24,164.27a1.51,1.51,0,0,1-.48-.08,1.07,1.07,0,0,1-.72-.7,1.15,1.15,0,0,1,.24-1.05,1.84,1.84,0,0,1,1.91-.61,1.09,1.09,0,0,1,.72.71,1.15,1.15,0,0,1-.24,1.05h0A1.87,1.87,0,0,1,236.24,164.27Zm.45-1.49a.83.83,0,0,0-.63.28.24.24,0,0,0-.06.14.82.82,0,0,0,.89-.23.26.26,0,0,0,.06-.14A.58.58,0,0,0,236.69,162.78Z" style="fill:#ebebeb"></path><path d="M258.66,132.12a.92.92,0,0,1,.91-.29.42.42,0,0,1,.26.22s0,.08-.06.11-.12,0-.13,0a.28.28,0,0,0-.18-.15.56.56,0,0,0-.34,0,.53.53,0,0,0-.29.19.29.29,0,0,0-.07.26.27.27,0,0,0,.19.18.57.57,0,0,0,.29,0c.06,0,.11,0,.11.05a.12.12,0,0,1-.1.1.85.85,0,0,1-.42,0A.39.39,0,0,1,258.66,132.12Z" style="fill:#fff"></path><path d="M259.53,132.91l.61-.77a.14.14,0,0,1,.14,0,.06.06,0,0,1,0,.1l-.25.31.39.13.24-.31a.16.16,0,0,1,.14-.05.06.06,0,0,1,0,.1l-.61.77a.14.14,0,0,1-.14,0,.06.06,0,0,1,0-.1l.24-.31-.38-.13-.24.31a.16.16,0,0,1-.14,0A.06.06,0,0,1,259.53,132.91Z" style="fill:#fff"></path><path d="M261.12,133.26l-.36-.12-.2.14a.13.13,0,0,1-.12,0h0a.07.07,0,0,1,0-.11l.94-.65a.09.09,0,0,1,.11,0s.05,0,0,.07l-.28.87a.14.14,0,0,1-.12.08h0a.06.06,0,0,1,0-.07Zm.05-.16.11-.32-.34.24Z" style="fill:#fff"></path><path d="M262.47,133l-.24-.08-.55.7a.11.11,0,0,1-.13,0c-.05,0-.06-.06,0-.1l.55-.69-.23-.08s-.06-.06,0-.1a.13.13,0,0,1,.14,0l.63.21c.05,0,.06.06,0,.1A.15.15,0,0,1,262.47,133Z" style="fill:#fff"></path><polygon points="241.08 144.7 255.43 149.48 258.57 145.52 244.22 140.74 244.22 140.74 241.08 144.7 241.08 144.7" style="fill:#455a64"></polygon><polygon points="256.76 149.92 255.43 149.48 256.39 148.26 256.76 149.92" style="fill:#455a64"></polygon><polygon points="257.14 146 244.44 141.78 244.5 141.7 257.2 145.93 257.14 146" style="fill:#fff"></polygon><polygon points="254.19 145.53 244.12 142.18 244.18 142.11 254.25 145.46 254.19 145.53" style="fill:#fff"></polygon><polygon points="255.13 146.87 243.47 143 243.53 142.92 255.19 146.8 255.13 146.87" style="fill:#fff"></polygon><polygon points="255.86 147.63 243.15 143.4 243.21 143.33 255.92 147.55 255.86 147.63" style="fill:#fff"></polygon><polygon points="255.53 148.03 242.83 143.81 242.89 143.73 255.59 147.96 255.53 148.03" style="fill:#fff"></polygon><polygon points="251.69 147.27 242.51 144.22 242.56 144.14 251.75 147.19 251.69 147.27" style="fill:#fff"></polygon><polygon points="233.67 154.06 248.02 158.83 251.16 154.87 236.81 150.1 236.81 150.1 233.67 154.06 233.67 154.06" style="fill:#455a64"></polygon><polygon points="249.35 159.27 248.02 158.83 248.98 157.61 249.35 159.27" style="fill:#455a64"></polygon><polygon points="249.73 155.36 237.03 151.13 237.09 151.05 249.79 155.28 249.73 155.36" style="fill:#fff"></polygon><polygon points="246.77 154.88 236.7 151.54 236.76 151.46 246.83 154.81 246.77 154.88" style="fill:#fff"></polygon><polygon points="247.72 156.23 236.06 152.35 236.12 152.27 247.78 156.15 247.72 156.23" style="fill:#fff"></polygon><polygon points="248.44 156.98 235.74 152.75 235.8 152.68 248.5 156.91 248.44 156.98" style="fill:#fff"></polygon><polygon points="248.12 157.39 235.41 153.16 235.47 153.09 248.18 157.31 248.12 157.39" style="fill:#fff"></polygon><polygon points="244.28 156.62 235.09 153.57 235.15 153.49 244.34 156.55 244.28 156.62" style="fill:#fff"></polygon><polygon points="263.01 142.03 248.66 137.25 251.31 133.91 265.66 138.69 263.01 142.03" style="fill:#633FBD"></polygon><polygon points="247.33 136.81 248.66 137.25 249.63 136.04 247.33 136.81" style="fill:#633FBD"></polygon><polygon points="262.18 138.4 251.6 134.88 251.66 134.81 262.24 138.33 262.18 138.4" style="fill:#fff"></polygon><polygon points="263.98 139.52 251.28 135.29 251.34 135.22 264.04 139.44 263.98 139.52" style="fill:#fff"></polygon><polygon points="263.66 139.92 250.96 135.7 251.02 135.62 263.72 139.85 263.66 139.92" style="fill:#fff"></polygon><polygon points="262.33 140 250.63 136.1 250.69 136.03 262.39 139.92 262.33 140" style="fill:#fff"></polygon><polygon points="263.02 140.74 250.31 136.51 250.37 136.44 263.08 140.66 263.02 140.74" style="fill:#fff"></polygon><polygon points="259.38 140.04 249.99 136.92 250.05 136.84 259.44 139.96 259.38 140.04" style="fill:#fff"></polygon><polygon points="260.62 145.05 246.27 140.27 248.23 137.8 262.58 142.57 260.62 145.05" style="fill:#633FBD"></polygon><polygon points="244.94 139.83 246.27 140.27 247.23 139.06 244.94 139.83" style="fill:#633FBD"></polygon><polygon points="261.21 142.99 248.52 138.77 248.58 138.69 261.27 142.91 261.21 142.99" style="fill:#fff"></polygon><polygon points="258.64 142.65 248.2 139.17 248.26 139.1 258.7 142.57 258.64 142.65" style="fill:#fff"></polygon><polygon points="259.37 143.4 247.88 139.58 247.94 139.5 259.43 143.32 259.37 143.4" style="fill:#fff"></polygon><polygon points="256.42 142.93 247.56 139.99 247.62 139.91 256.48 142.86 256.42 142.93" style="fill:#fff"></polygon><polygon points="253.22 154.38 238.87 149.61 241.64 146.12 255.99 150.89 253.22 154.38" style="fill:#dbdbdb"></polygon><polygon points="237.54 149.17 238.87 149.61 239.84 148.39 237.54 149.17" style="fill:#dbdbdb"></polygon><polygon points="252.97 152.28 240.97 148.29 241.03 148.22 253.03 152.21 252.97 152.28" style="fill:#fff"></polygon><polygon points="251.67 152.37 240.65 148.7 240.71 148.62 251.73 152.29 251.67 152.37" style="fill:#fff"></polygon><polygon points="252.93 151.24 241.62 147.48 241.68 147.41 252.99 151.17 252.93 151.24" style="fill:#fff"></polygon><polygon points="254.49 151.25 241.94 147.07 242 147 254.55 151.17 254.49 151.25" style="fill:#fff"></polygon><polygon points="251.74 152.9 240.33 149.11 240.39 149.03 251.8 152.83 251.74 152.9" style="fill:#fff"></polygon><polygon points="246.22 163.21 231.87 158.44 234.18 155.53 248.53 160.3 246.22 163.21" style="fill:#633FBD"></polygon><polygon points="230.54 158 231.87 158.44 232.84 157.22 230.54 158" style="fill:#633FBD"></polygon><polygon points="247.2 160.7 234.49 156.47 234.55 156.4 247.26 160.63 247.2 160.7" style="fill:#fff"></polygon><polygon points="246.87 161.11 234.17 156.88 234.23 156.81 246.93 161.03 246.87 161.11" style="fill:#fff"></polygon><polygon points="245.55 161.18 233.85 157.29 233.91 157.21 245.6 161.1 245.55 161.18" style="fill:#fff"></polygon><polygon points="246.23 161.92 233.52 157.69 233.58 157.62 246.29 161.84 246.23 161.92" style="fill:#fff"></polygon><polygon points="242.59 161.22 233.2 158.1 233.26 158.03 242.65 161.15 242.59 161.22" style="fill:#fff"></polygon><path d="M240.69,172.17c-5.17.08,11.64-10.42,11.9-16.31s-5.48-4-10-.71c-15.7,11.54-27.55,11-35.51,22S240.69,172.17,240.69,172.17Z" style="fill: rgb(247, 169, 160);"></path><path d="M225.05,165a41.28,41.28,0,0,0-9.67,3.79,25.11,25.11,0,0,0-7,6.55c-.08.11.07.26.16.15,4.24-5.21,10.52-7.82,16.55-10.34A.08.08,0,0,0,225.05,165Z" style="fill:#263238"></path><path d="M166.45,187c4,1.09,32.05-6.6,32.05-6.6l15.75,38.08s-48.8,11.36-60.19,7.42-29.13-42.65-34.87-65.14c-5.39-21.14,1.8-34.94,16.89-13C136.08,147.68,164.35,186.39,166.45,187Z" style="fill:#455a64"></path><path d="M205.33,220.4c-3.15.64-6.91,1.4-11,2.17L180,185c3.66-.82,7.49-1.76,10.69-2.57C195.12,193.86,200.49,207.76,205.33,220.4Z" style="fill:#ebebeb"></path><path d="M190.08,223.33c-1.16.21-2.34.42-3.54.62l-14.29-37.4,3.43-.63C180,197.13,185.28,210.79,190.08,223.33Z" style="fill:#ebebeb"></path><path d="M153.45,224.69c-9.54-4.89-21.31-30.47-23.58-35.49-1.45-3.22-2.77-6.48-4.07-9.76-2.6-6.56-5-13.2-7.28-19.87a.09.09,0,1,0-.18.05c1.25,5.15,2.77,10.26,4.51,15.28a55.85,55.85,0,0,1-3.11-5.81c0-.1-.21,0-.17.07a31.91,31.91,0,0,0,3.63,6.73c1.79,5,3.81,10,6.07,14.85.65,1.39,14.26,32.73,24.93,35.64,3.71,1,16.4.1,19.09-.52.12,0,.15-.17,0-.17C169.64,225.6,156.87,226.43,153.45,224.69Z" style="fill:#263238"></path><path d="M203.71,213.83l-1.44-3.93c-1-2.62-6.85-18.2-9.4-23.06-.07-.13-.26,0-.23.1,1.43,5.33,7.66,20.7,8.7,23.24.53,1.3,1.07,2.59,1.62,3.88s1.25,2.53,1.79,3.83c.06.13.26.07.21-.06C204.49,216.52,204.18,215.15,203.71,213.83Z" style="fill:#263238"></path><path d="M198.51,180.43c-2.32.1-23.3,5-27.93,6a9.57,9.57,0,0,1-3.43.48,5,5,0,0,1-2.74-2.06c-1.51-1.72-17.91-23.4-19.1-24.47-.45-.4-.8-.48-.38.2.73,1.18,16.68,22.59,18.13,24.27s2.61,3.21,4.87,3.12c1,0,29.28-6.38,30.67-7C198.9,180.89,198.87,180.41,198.51,180.43Z" style="fill:#263238"></path><path d="M131.68,131.86c.08,1.4,5,11.29,11.23,12.07,2,.25,3.89-10.75,3.89-10.75l.32-.78,4.52-10.94-11.87-10.9L138,109.09s-1,3.08-2.29,6.92c-.06.18-.12.35-.18.55s-.15.41-.21.62c-.2.57-.4,1.15-.58,1.74-.14.44-.28.88-.41,1.35s-.28.93-.42,1.4A75.78,75.78,0,0,0,131.68,131.86Z" style="fill: rgb(247, 169, 160);"></path><path d="M135.74,116a23.76,23.76,0,0,0,11.38,16.39l4.52-10.94-11.87-10.9L138,109.09S137,112.17,135.74,116Z" style="fill:#263238"></path><path d="M170.55,104.07c.26,20.76-12.15,23.26-16.63,23.31-4.07.05-17.91-.32-20.31-20.94s7.17-27.32,16.46-27.91S170.3,83.3,170.55,104.07Z" style="fill: rgb(247, 169, 160);"></path><path d="M167.26,99.84c-.48-.09-.92-.25-1.38-.38a2.36,2.36,0,0,1-1.34-.65.74.74,0,0,1,.05-.9,1.83,1.83,0,0,1,1.83-.33,2.72,2.72,0,0,1,1.63,1A.79.79,0,0,1,167.26,99.84Z" style="fill:#263238"></path><path d="M153.39,99.71a13.94,13.94,0,0,0,1.42-.22,2.33,2.33,0,0,0,1.4-.49.74.74,0,0,0,0-.9,1.85,1.85,0,0,0-1.78-.54,2.71,2.71,0,0,0-1.74.86A.79.79,0,0,0,153.39,99.71Z" style="fill:#263238"></path><path d="M155.91,104.8s-.11.06-.11.12c0,1.42-.24,3-1.54,3.46,0,0,0,.09,0,.08C155.84,108.3,156.14,106.14,155.91,104.8Z" style="fill:#263238"></path><path d="M154.7,103.28c-2.26-.25-2.6,4.3-.5,4.54S156.6,103.49,154.7,103.28Z" style="fill:#263238"></path><path d="M153.79,103.46c-.41.22-.84.65-1.32.66s-.94-.49-1.27-1c0,0-.08,0-.08,0-.08.87.19,1.79,1.11,2s1.52-.54,1.8-1.41C154.08,103.61,154,103.36,153.79,103.46Z" style="fill:#263238"></path><path d="M164.23,104.85c0-.06.1.07.1.13-.16,1.4-.11,3,1.13,3.61,0,0,0,.09,0,.08C163.9,108.33,163.85,106.15,164.23,104.85Z" style="fill:#263238"></path><path d="M165.61,103.48c2.28,0,2.08,4.57,0,4.56S163.69,103.47,165.61,103.48Z" style="fill:#263238"></path><path d="M166.54,103.82c.35.25.69.71,1.12.75s.89-.42,1.23-.88c0,0,.07,0,.07,0,0,.88-.34,1.77-1.19,1.9s-1.3-.65-1.47-1.53C166.27,104,166.4,103.71,166.54,103.82Z" style="fill:#263238"></path><path d="M155.25,115.85c.3.37.58.87,1.08,1a3.76,3.76,0,0,0,1.56-.17s.08,0,.05.07a1.89,1.89,0,0,1-1.88.55,1.48,1.48,0,0,1-.95-1.37C155.1,115.82,155.21,115.8,155.25,115.85Z" style="fill:#263238"></path><path d="M161.47,111.12s.16,2.12.1,3.12c0,.09-.25.12-.59.12,0,0,0,0,0,0a4.75,4.75,0,0,1-4.48-2,.1.1,0,0,1,.15-.13,7.17,7.17,0,0,0,4.24,1.5c.09-.27-.39-3.63-.24-3.63a8.29,8.29,0,0,1,2.23.65c-.21-4.44-1.12-8.81-1.26-13.23a.13.13,0,0,1,.26,0c1.29,4.51,1.64,9.61,2,14.19C163.86,112.18,161.85,111.31,161.47,111.12Z" style="fill:#263238"></path><path d="M160.86,114a5.76,5.76,0,0,1-2.37,1.73,2.57,2.57,0,0,1-1.58.05c-1.14-.33-1.14-1.38-.9-2.28a6.3,6.3,0,0,1,.55-1.36A7.48,7.48,0,0,0,160.86,114Z" style="fill:#263238"></path><path d="M158.49,115.71a2.57,2.57,0,0,1-1.58.05c-1.14-.33-1.14-1.38-.9-2.28A2.7,2.7,0,0,1,158.49,115.71Z" style="fill:#ff9cbd"></path><path d="M133.14,105.62c3.45.63,5-6.57,5-6.57s7.06.78,10.47-9.13a15.66,15.66,0,0,1-4,8.06s12.59,0,18.95-9.85c0,0-2.66,5.08-4.82,6.76,0,0,5.38-.9,8.37-4.87,0,0,1.54,6.24,3,8.08,0,0,1.8-21.84-18.63-21.67,0,0-12.73-.5-18.33,9S133.14,105.62,133.14,105.62Z" style="fill:#263238"></path><path d="M136.29,106.71s-4-6.8-7.1-5.41-.35,11,3,12.56a3.51,3.51,0,0,0,4.83-1.53Z" style="fill: rgb(247, 169, 160);"></path><path d="M130,104c-.06,0-.08.07,0,.09,2.34,1.16,3.45,3.5,4.17,5.88a2,2,0,0,0-2.86-.74c-.06,0,0,.14.06.13a2.17,2.17,0,0,1,2.31.93,11.32,11.32,0,0,1,1,2c.09.23.49.14.43-.11,0,0,0,0,0-.06C135.39,109.09,133.32,104.6,130,104Z" style="fill:#263238"></path></g></svg>